<?xml version="1.0" encoding="UTF-8" standalone="no"?>
<svg
   xmlns:dc="http://purl.org/dc/elements/1.1/"
   xmlns:cc="http://creativecommons.org/ns#"
   xmlns:rdf="http://www.w3.org/1999/02/22-rdf-syntax-ns#"
   xmlns:svg="http://www.w3.org/2000/svg"
   xmlns="http://www.w3.org/2000/svg"
   xmlns:sodipodi="http://sodipodi.sourceforge.net/DTD/sodipodi-0.dtd"
   xmlns:inkscape="http://www.inkscape.org/namespaces/inkscape"
   viewBox="0.0 0.0 348.0 348.0"
   fill="none"
   version="1.1"
   id="svg4698"
   sodipodi:docname="Time Synchronization.svg"
   inkscape:version="0.92.3 (2405546, 2018-03-11)">
  <metadata
     id="metadata4704">
    <rdf:RDF>
      <cc:Work
         rdf:about="">
        <dc:format>image/svg+xml</dc:format>
        <dc:type
           rdf:resource="http://purl.org/dc/dcmitype/StillImage" />
      </cc:Work>
    </rdf:RDF>
  </metadata>
  <defs
     id="defs4702" />
  <sodipodi:namedview
     pagecolor="#ffffff"
     bordercolor="#666666"
     borderopacity="1"
     objecttolerance="10"
     gridtolerance="10"
     guidetolerance="10"
     inkscape:pageopacity="0"
     inkscape:pageshadow="2"
     inkscape:window-width="1849"
     inkscape:window-height="1138"
     id="namedview4700"
     showgrid="false"
     inkscape:zoom="1.6783626"
     inkscape:cx="248.35336"
     inkscape:cy="191.27677"
     inkscape:window-x="71"
     inkscape:window-y="411"
     inkscape:window-maximized="1"
     inkscape:current-layer="svg4698"
     inkscape:snap-bbox="true"
     inkscape:snap-bbox-midpoints="true"
     inkscape:snap-bbox-edge-midpoints="true"
     inkscape:bbox-paths="true"
     inkscape:bbox-nodes="true"
     inkscape:object-paths="true"
     inkscape:snap-intersection-paths="true"
     inkscape:snap-smooth-nodes="true"
     inkscape:snap-midpoints="true"
     inkscape:snap-object-midpoints="true"
     inkscape:snap-center="true"
     inkscape:snap-text-baseline="true"
     inkscape:snap-page="true" />
  <path
     d="M5.079 5.776h336.913v337.67H5.08z"
     stroke-width="2"
     stroke="#000"
     id="path4694"
     style="stroke-width:4;stroke-miterlimit:4;stroke-dasharray:none" />
  <path
     d="M282.734 40.554c0-8.376 6.966-15.165 15.56-15.165 4.126 0 8.084 1.597 11.001 4.441 2.918 2.844 4.558 6.702 4.558 10.724 0 8.376-6.966 15.165-15.56 15.165-8.593 0-15.559-6.79-15.559-15.165z"
     stroke-width="2"
     stroke="#000"
     id="path4696"
     style="stroke-width:4;stroke-miterlimit:4;stroke-dasharray:none" />
  <rect
     style="fill:none;fill-opacity:1;stroke:#000000;stroke-width:4;stroke-linecap:round;stroke-linejoin:round;stroke-miterlimit:4;stroke-dasharray:none;stroke-dashoffset:0;stroke-opacity:1;paint-order:markers fill stroke"
     id="rect4706"
     width="93.367195"
     height="49.202122"
     x="43.051426"
     y="175.86362" />
  <g
     aria-label="234"
     style="font-style:normal;font-variant:normal;font-weight:900;font-stretch:normal;font-size:57.25378799px;line-height:1.25;font-family:'Ostrich Sans';-inkscape-font-specification:'Ostrich Sans, Heavy';font-variant-ligatures:normal;font-variant-caps:normal;font-variant-numeric:normal;font-feature-settings:normal;text-align:start;letter-spacing:0px;word-spacing:0px;writing-mode:lr-tb;text-anchor:start;fill:#000000;fill-opacity:1;stroke:none;stroke-width:1.43134475"
     id="text4710">
    <path
       d="m 69.674238,198.38273 1.821711,2.08195 -2.290151,2.08196 H 55.673084 l -1.87376,-2.08196 2.3422,-2.08195 z M 69.57014,219.20229 H 52.394004 q -2.029907,-0.52049 -2.342201,-2.60245 l 4.320059,-1.56147 h 14.053202 z m -19.414239,-3.64343 1.40532,-13.53271 1.145076,-1.04098 2.810641,3.12294 -1.040978,9.88929 z M 69.934482,185.89099 H 57.494796 l -4.007766,-1.56147 q 0.728685,-2.08195 2.86269,-2.60244 h 15.56262 z m -0.104097,10.93027 1.145075,-10.93027 1.977858,-4.16391 q 2.029907,0.52049 2.342201,2.60244 l -1.509418,14.5737 -1.197125,1.04097 z"
       style="font-style:normal;font-variant:normal;font-weight:bold;font-stretch:normal;font-family:'Digital-7 Mono';-inkscape-font-specification:'Digital-7 Mono Bold';stroke-width:1.43134475"
       id="path859" />
    <path
       d="m 96.735599,198.38273 1.821712,2.08195 -2.290152,2.08196 H 82.734446 l -1.873761,-2.08196 2.342201,-2.08195 z m 2.810641,2.60244 0.93688,1.04098 -1.509418,14.57369 q -0.728685,2.08196 -2.86269,2.60245 l -1.145075,-4.16392 1.145075,-10.93026 z m -4.476206,18.21712 H 79.455365 q -2.029907,-0.52049 -2.3422,-2.60245 l 4.320058,-1.56147 h 12.491736 z m 1.92581,-33.3113 H 84.556157 l -4.007765,-1.56147 q 0.728684,-2.08195 2.862689,-2.60244 h 15.562621 z m -0.104098,10.93027 1.145076,-10.93027 1.977858,-4.16391 q 2.02991,0.52049 2.3422,2.60244 l -1.50942,14.5737 -1.197123,1.04097 z"
       style="font-style:normal;font-variant:normal;font-weight:bold;font-stretch:normal;font-family:'Digital-7 Mono';-inkscape-font-specification:'Digital-7 Mono Bold';stroke-width:1.43134475"
       id="path861" />
    <path
       d="m 123.79696,198.38273 1.82171,2.08195 -2.29015,2.08196 h -13.53271 l -1.87376,-2.08196 2.3422,-2.08195 z m 2.81064,2.60244 0.93688,1.04098 -1.50942,14.57369 q -0.72868,2.08196 -2.86269,2.60245 l -1.14507,-4.16392 1.14507,-10.93026 z m -14.99008,-15.61467 -1.19713,11.45076 -3.48727,3.12293 -0.88483,-1.04097 1.56146,-15.09418 z m 12.33559,11.45076 1.14507,-10.93027 1.97786,-4.16391 q 2.02991,0.52049 2.3422,2.60244 l -1.50942,14.5737 -1.19712,1.04097 z"
       style="font-style:normal;font-variant:normal;font-weight:bold;font-stretch:normal;font-family:'Digital-7 Mono';-inkscape-font-specification:'Digital-7 Mono Bold';stroke-width:1.43134475"
       id="path863" />
  </g>
  <path
     style="fill:none;stroke:#000000;stroke-width:4;stroke-linecap:round;stroke-linejoin:miter;stroke-miterlimit:4;stroke-dasharray:none;stroke-opacity:1"
     d="M 21.143436,114.15824 V 286.74665"
     id="path4712"
     inkscape:connector-curvature="0"
     sodipodi:nodetypes="cc" />
  <path
     style="fill:none;stroke:#000000;stroke-width:4;stroke-linecap:round;stroke-linejoin:round;stroke-miterlimit:4;stroke-dasharray:none;stroke-opacity:1"
     d="m 21.143436,286.77113 h 13.48184"
     id="path4714"
     inkscape:connector-curvature="0" />
  <path
     style="fill:none;stroke:#000000;stroke-width:4;stroke-linecap:round;stroke-linejoin:round;stroke-miterlimit:4;stroke-dasharray:none;stroke-opacity:1"
     d="m 21.143436,243.6179 h 13.48184"
     id="path4714-3"
     inkscape:connector-curvature="0" />
  <path
     style="fill:none;stroke:#000000;stroke-width:4;stroke-linecap:round;stroke-linejoin:round;stroke-miterlimit:4;stroke-dasharray:none;stroke-opacity:1"
     d="m 21.143436,200.46468 h 13.48184"
     id="path4714-3-7"
     inkscape:connector-curvature="0" />
  <path
     style="fill:none;stroke:#000000;stroke-width:4;stroke-linecap:round;stroke-linejoin:round;stroke-miterlimit:4;stroke-dasharray:none;stroke-opacity:1"
     d="m 21.143436,157.31146 h 13.48184"
     id="path4714-3-3"
     inkscape:connector-curvature="0" />
  <path
     style="fill:none;stroke:#000000;stroke-width:4;stroke-linecap:round;stroke-linejoin:round;stroke-miterlimit:4;stroke-dasharray:none;stroke-opacity:1"
     d="m 21.143436,114.15824 h 13.48184"
     id="path4714-3-7-5"
     inkscape:connector-curvature="0" />
  <path
     style="fill:none;stroke:#000000;stroke-width:4;stroke-linecap:round;stroke-linejoin:miter;stroke-miterlimit:4;stroke-dasharray:none;stroke-opacity:1"
     d="M 266.76571,92.581629 V 308.32326"
     id="path4712-6"
     inkscape:connector-curvature="0"
     sodipodi:nodetypes="cc" />
  <path
     style="fill:none;stroke:#000000;stroke-width:4;stroke-linecap:round;stroke-linejoin:round;stroke-miterlimit:4;stroke-dasharray:none;stroke-opacity:1"
     d="M 266.76571,308.34774 H 253.28387"
     id="path4714-2"
     inkscape:connector-curvature="0" />
  <path
     style="fill:none;stroke:#000000;stroke-width:4;stroke-linecap:round;stroke-linejoin:round;stroke-miterlimit:4;stroke-dasharray:none;stroke-opacity:1"
     d="M 266.76571,265.19451 H 253.28387"
     id="path4714-3-9"
     inkscape:connector-curvature="0" />
  <path
     style="fill:none;stroke:#000000;stroke-width:4;stroke-linecap:round;stroke-linejoin:round;stroke-miterlimit:4;stroke-dasharray:none;stroke-opacity:1"
     d="M 266.76571,222.04129 H 253.28387"
     id="path4714-3-7-1"
     inkscape:connector-curvature="0" />
  <path
     style="fill:none;stroke:#000000;stroke-width:4;stroke-linecap:round;stroke-linejoin:round;stroke-miterlimit:4;stroke-dasharray:none;stroke-opacity:1"
     d="M 266.76571,178.88807 H 253.28387"
     id="path4714-3-3-2"
     inkscape:connector-curvature="0" />
  <path
     style="fill:none;stroke:#000000;stroke-width:4;stroke-linecap:round;stroke-linejoin:round;stroke-miterlimit:4;stroke-dasharray:none;stroke-opacity:1"
     d="M 266.76571,135.73485 H 253.28387"
     id="path4714-3-7-5-7"
     inkscape:connector-curvature="0" />
  <path
     style="fill:none;stroke:#000000;stroke-width:4;stroke-linecap:round;stroke-linejoin:round;stroke-miterlimit:4;stroke-dasharray:none;stroke-opacity:1"
     d="M 266.76571,92.581629 H 253.28387"
     id="path4714-3-7-5-7-9"
     inkscape:connector-curvature="0" />
  <rect
     style="fill:none;fill-opacity:1;stroke:#000000;stroke-width:4;stroke-linecap:round;stroke-linejoin:round;stroke-miterlimit:4;stroke-dasharray:none;stroke-dashoffset:0;stroke-opacity:1;paint-order:markers fill stroke"
     id="rect4706-3"
     width="93.367195"
     height="49.202122"
     x="151.06923"
     y="197.44023" />
  <g
     aria-label="256"
     style="font-style:normal;font-variant:normal;font-weight:900;font-stretch:normal;font-size:57.25378799px;line-height:1.25;font-family:'Ostrich Sans';-inkscape-font-specification:'Ostrich Sans, Heavy';font-variant-ligatures:normal;font-variant-caps:normal;font-variant-numeric:normal;font-feature-settings:normal;text-align:start;letter-spacing:0px;word-spacing:0px;writing-mode:lr-tb;text-anchor:start;fill:#000000;fill-opacity:1;stroke:none;stroke-width:1.43134475"
     id="text4710-6">
    <path
       d="m 177.69205,219.95934 1.82171,2.08196 -2.29015,2.08195 H 163.6909 l -1.87377,-2.08195 2.34221,-2.08196 z m -0.1041,20.81956 h -17.17614 q -2.0299,-0.52049 -2.3422,-2.60244 l 4.32006,-1.56147 h 14.05321 z m -19.41424,-3.64342 1.40532,-13.53272 1.14508,-1.04097 2.81064,3.12293 -1.04098,9.88929 z m 19.77858,-29.66787 h -12.43968 l -4.00777,-1.56147 q 0.72869,-2.08196 2.86269,-2.60245 h 15.56262 z m -0.10409,10.93026 1.14507,-10.93026 1.97786,-4.16392 q 2.02991,0.52049 2.3422,2.60245 l -1.50942,14.57369 -1.19712,1.04098 z"
       style="font-style:normal;font-variant:normal;font-weight:bold;font-stretch:normal;font-family:'Digital-7 Mono';-inkscape-font-specification:'Digital-7 Mono Bold';stroke-width:1.43134475"
       id="path852" />
    <path
       d="m 204.75341,219.95934 1.82171,2.08196 -2.29015,2.08195 h -13.53271 l -1.87376,-2.08195 2.3422,-2.08196 z m 2.81064,2.60245 0.93688,1.04097 -1.50942,14.5737 q -0.72868,2.08195 -2.86269,2.60244 l -1.14507,-4.16391 1.14507,-10.93027 z m -4.4762,18.21711 h -15.61467 q -2.02991,-0.52049 -2.3422,-2.60244 l 4.32005,-1.56147 h 12.49174 z m 3.48727,-33.31129 h -14.00115 l -4.00777,-1.56147 q 0.72869,-2.08196 2.86269,-2.60245 h 17.12409 z m -14.1573,1.04097 -1.04098,9.88929 -3.48727,3.12294 -0.88483,-1.04098 1.40532,-13.53271 z"
       style="font-style:normal;font-variant:normal;font-weight:bold;font-stretch:normal;font-family:'Digital-7 Mono';-inkscape-font-specification:'Digital-7 Mono Bold';stroke-width:1.43134475"
       id="path854" />
    <path
       d="m 231.81477,219.95934 1.82171,2.08196 -2.29015,2.08195 h -13.53271 l -1.87376,-2.08195 2.3422,-2.08196 z m 2.81064,2.60245 0.93688,1.04097 -1.50942,14.5737 q -0.72868,2.08195 -2.86269,2.60244 l -1.14507,-4.16391 1.14507,-10.93027 z m -4.4762,18.21711 h -15.61467 q -2.02991,-0.52049 -2.3422,-2.60244 l 4.32006,-1.56147 h 12.49173 z m -17.85278,-3.64342 1.40532,-13.53272 1.14508,-1.04097 2.81064,3.12293 -1.04098,9.88929 z m 21.34005,-29.66787 h -14.00115 l -4.00777,-1.56147 q 0.72869,-2.08196 2.86269,-2.60245 h 17.12409 z m -14.1573,1.04097 -1.04098,9.88929 -3.48727,3.12294 -0.88483,-1.04098 1.40532,-13.53271 z"
       style="font-style:normal;font-variant:normal;font-weight:bold;font-stretch:normal;font-family:'Digital-7 Mono';-inkscape-font-specification:'Digital-7 Mono Bold';stroke-width:1.43134475"
       id="path856" />
  </g>
  <path
     sodipodi:type="star"
     style="fill:none;fill-opacity:1;stroke:#000000;stroke-width:4;stroke-linecap:round;stroke-linejoin:round;stroke-miterlimit:4;stroke-dasharray:none;stroke-dashoffset:0;stroke-opacity:1;paint-order:markers fill stroke"
     id="path4839"
     sodipodi:sides="3"
     sodipodi:cx="305.77095"
     sodipodi:cy="168.04401"
     sodipodi:r1="21.688131"
     sodipodi:r2="10.844066"
     sodipodi:arg1="2.6179939"
     sodipodi:arg2="3.6651914"
     inkscape:flatsided="true"
     inkscape:rounded="0"
     inkscape:randomized="0"
     d="m 286.98846,178.88807 18.78248,-32.53219 18.78247,32.53219 z"
     inkscape:transform-center-y="-5.4220328" />
  <path
     sodipodi:type="star"
     style="fill:none;fill-opacity:1;stroke:#000000;stroke-width:4;stroke-linecap:round;stroke-linejoin:round;stroke-miterlimit:4;stroke-dasharray:none;stroke-dashoffset:0;stroke-opacity:1;paint-order:markers fill stroke"
     id="path4839-6"
     sodipodi:sides="3"
     sodipodi:cx="-305.77095"
     sodipodi:cy="-232.88536"
     sodipodi:r1="21.688131"
     sodipodi:r2="10.844066"
     sodipodi:arg1="2.6179939"
     sodipodi:arg2="3.6651914"
     inkscape:flatsided="true"
     inkscape:rounded="0"
     inkscape:randomized="0"
     d="m -324.55341,-222.0413 18.78248,-32.53219 18.78247,32.5322 z"
     inkscape:transform-center-y="5.4220325"
     transform="scale(-1)" />
  <rect
     style="fill:none;fill-opacity:1;stroke:#000000;stroke-width:4;stroke-linecap:round;stroke-linejoin:round;stroke-miterlimit:4;stroke-dasharray:none;stroke-dashoffset:0;stroke-opacity:1;paint-order:markers fill stroke"
     id="rect4706-1"
     width="93.367195"
     height="49.202122"
     x="75.916893"
     y="36.488525" />
  <g
     aria-label="70%"
     style="font-style:normal;font-variant:normal;font-weight:900;font-stretch:normal;font-size:57.25378799px;line-height:1.25;font-family:'Ostrich Sans';-inkscape-font-specification:'Ostrich Sans, Heavy';font-variant-ligatures:normal;font-variant-caps:normal;font-variant-numeric:normal;font-feature-settings:normal;text-align:start;letter-spacing:0px;word-spacing:0px;writing-mode:lr-tb;text-anchor:start;fill:#000000;fill-opacity:1;stroke:none;stroke-width:1.43134475"
     id="text4710-8">
    <path
       d="m 105.35035,61.61008 0.93688,1.040978 -1.50942,14.573691 q -0.72869,2.081956 -2.86269,2.602445 l -1.14508,-4.163912 1.14508,-10.930268 z m -2.5504,-15.094181 H 90.360263 l -4.007765,-1.561467 q 0.728684,-2.081955 2.862689,-2.602444 h 15.562623 z m -12.595834,1.040978 -1.040978,9.889291 -3.487276,3.122934 -0.884831,-1.040978 1.40532,-13.532714 z m 12.491734,9.889291 1.14508,-10.930269 1.97786,-4.163911 q 2.0299,0.520489 2.3422,2.602444 l -1.50942,14.573692 -1.19713,1.040978 z"
       style="font-style:normal;font-variant:normal;font-weight:bold;font-stretch:normal;font-family:'Digital-7 Mono';-inkscape-font-specification:'Digital-7 Mono Bold';stroke-width:1.43134475"
       id="path845" />
    <path
       d="m 132.41171,61.61008 0.93688,1.040978 -1.50942,14.573691 q -0.72869,2.081956 -2.86269,2.602445 l -1.14508,-4.163912 1.14508,-10.930268 z m -4.47621,18.217114 h -15.61467 q -2.02991,-0.520489 -2.3422,-2.602445 l 4.32006,-1.561467 h 12.49174 z m -17.85277,-3.643423 1.40532,-13.532713 1.14508,-1.040978 2.81064,3.122934 -1.04098,9.88929 z m 19.77858,-29.667872 h -12.43969 l -4.00776,-1.561467 q 0.72868,-2.081955 2.86269,-2.602444 h 15.56262 z m -12.59583,1.040978 -1.04098,9.889291 -3.48728,3.122934 -0.88483,-1.040978 1.40532,-13.532714 z m 12.49173,9.889291 1.14508,-10.930269 1.97786,-4.163911 q 2.0299,0.520489 2.3422,2.602444 l -1.50942,14.573692 -1.19713,1.040978 z"
       style="font-style:normal;font-variant:normal;font-weight:bold;font-stretch:normal;font-family:'Digital-7 Mono';-inkscape-font-specification:'Digital-7 Mono Bold';stroke-width:1.43134475"
       id="path847" />
    <path
       d="m 150.885,54.947821 7.49504,-12.595833 q 3.12294,0 3.95572,2.081955 l -9.73315,16.135159 h -2.3422 z m -2.4463,12.28354 -7.49504,12.595833 q -3.12293,0 -3.95572,-2.081956 l 9.6811,-16.135158 h 2.3422 z m -2.96679,-20.715462 h -3.12293 l -4.00776,-1.561467 q 0.72868,-2.081955 2.86268,-2.602444 h 6.24587 z m -3.22703,1.040978 -0.36434,3.122934 -1.97786,4.163912 q -2.0299,-0.520489 -2.3422,-2.602445 l 0.67664,-6.245868 z m 0.67664,3.122934 h 3.12293 l 4.00777,1.561467 q -0.72869,2.081956 -2.86269,2.602445 h -6.24587 z m 3.27908,-1.040978 0.31229,-3.122934 1.97786,-4.163911 q 2.02991,0.520489 2.3422,2.602444 l -0.67663,6.245868 z m 10.87822,24.983471 0.31229,-3.122933 2.02991,-4.163912 q 2.02991,0.520489 2.3422,2.602445 l -0.67664,6.245867 z m -0.72869,-3.122933 h -3.12293 l -3.95572,-1.561467 q 0.72869,-2.081956 2.86269,-2.602445 h 6.24587 z m -3.22703,1.040977 -0.31229,3.122934 -1.97786,4.163912 q -2.02991,-0.520489 -2.3422,-2.602445 l 0.62459,-6.245867 z m 0.72869,3.122934 h 3.12293 l 4.00777,1.561467 q -0.72869,2.081956 -2.86269,2.602445 h -6.24587 z"
       style="font-style:normal;font-variant:normal;font-weight:bold;font-stretch:normal;font-family:'Digital-7 Mono';-inkscape-font-specification:'Digital-7 Mono Bold';stroke-width:1.43134475"
       id="path849" />
  </g>
</svg>
