<?xml version="1.0" encoding="UTF-8" standalone="no"?>
<svg
   xmlns:dc="http://purl.org/dc/elements/1.1/"
   xmlns:cc="http://creativecommons.org/ns#"
   xmlns:rdf="http://www.w3.org/1999/02/22-rdf-syntax-ns#"
   xmlns:svg="http://www.w3.org/2000/svg"
   xmlns="http://www.w3.org/2000/svg"
   xmlns:sodipodi="http://sodipodi.sourceforge.net/DTD/sodipodi-0.dtd"
   xmlns:inkscape="http://www.inkscape.org/namespaces/inkscape"
   viewBox="0.0 0.0 348.0 348.0"
   fill="none"
   version="1.1"
   id="svg904"
   sodipodi:docname="Wave Collapse.svg"
   inkscape:version="0.92.3 (2405546, 2018-03-11)">
  <metadata
     id="metadata910">
    <rdf:RDF>
      <cc:Work
         rdf:about="">
        <dc:format>image/svg+xml</dc:format>
        <dc:type
           rdf:resource="http://purl.org/dc/dcmitype/StillImage" />
        <dc:title />
      </cc:Work>
    </rdf:RDF>
  </metadata>
  <defs
     id="defs908" />
  <sodipodi:namedview
     pagecolor="#ffffff"
     bordercolor="#666666"
     borderopacity="1"
     objecttolerance="10"
     gridtolerance="10"
     guidetolerance="10"
     inkscape:pageopacity="0"
     inkscape:pageshadow="2"
     inkscape:window-width="1849"
     inkscape:window-height="1138"
     id="namedview906"
     showgrid="false"
     inkscape:snap-bbox="true"
     inkscape:bbox-paths="true"
     inkscape:bbox-nodes="true"
     inkscape:snap-bbox-edge-midpoints="true"
     inkscape:snap-bbox-midpoints="true"
     inkscape:object-paths="true"
     inkscape:snap-intersection-paths="true"
     inkscape:snap-smooth-nodes="true"
     inkscape:snap-midpoints="true"
     inkscape:snap-object-midpoints="true"
     inkscape:snap-center="true"
     inkscape:snap-text-baseline="true"
     inkscape:snap-page="true"
     inkscape:zoom="1.8017242"
     inkscape:cx="117.33533"
     inkscape:cy="176.05263"
     inkscape:window-x="71"
     inkscape:window-y="411"
     inkscape:window-maximized="1"
     inkscape:current-layer="svg904" />
  <path
     d="M5.079 5.776h336.913v337.67H5.08z"
     stroke-width="2"
     stroke="#000"
     id="path900"
     style="stroke-width:4;stroke-miterlimit:4;stroke-dasharray:none" />
  <path
     d="M282.734 40.554c0-8.376 6.966-15.165 15.56-15.165 4.126 0 8.084 1.597 11.001 4.441 2.918 2.844 4.558 6.702 4.558 10.724 0 8.376-6.966 15.165-15.56 15.165-8.593 0-15.559-6.79-15.559-15.165z"
     stroke-width="2"
     stroke="#000"
     id="path902"
     style="stroke-width:4;stroke-miterlimit:4;stroke-dasharray:none" />
  <rect
     style="fill:none;fill-opacity:1;stroke:#000000;stroke-width:4;stroke-linecap:round;stroke-linejoin:round;stroke-miterlimit:4;stroke-dasharray:none;stroke-dashoffset:0;stroke-opacity:1;paint-order:markers fill stroke"
     id="rect996"
     width="34.287762"
     height="34.287762"
     x="38.068737"
     y="38.348129" />
  <rect
     style="fill:none;fill-opacity:1;stroke:#000000;stroke-width:4;stroke-linecap:round;stroke-linejoin:round;stroke-miterlimit:4;stroke-dasharray:none;stroke-dashoffset:0;stroke-opacity:1;paint-order:markers fill stroke"
     id="rect996-3"
     width="34.287762"
     height="34.287762"
     x="77.42173"
     y="38.348129" />
  <rect
     style="fill:none;fill-opacity:1;stroke:#000000;stroke-width:4;stroke-linecap:round;stroke-linejoin:round;stroke-miterlimit:4;stroke-dasharray:none;stroke-dashoffset:0;stroke-opacity:1;paint-order:markers fill stroke"
     id="rect996-3-7"
     width="34.287762"
     height="34.287762"
     x="116.77473"
     y="38.348129" />
  <rect
     style="fill:none;fill-opacity:1;stroke:#000000;stroke-width:4;stroke-linecap:round;stroke-linejoin:round;stroke-miterlimit:4;stroke-dasharray:none;stroke-dashoffset:0;stroke-opacity:1;paint-order:markers fill stroke"
     id="rect996-3-3"
     width="34.287762"
     height="34.287762"
     x="156.12775"
     y="38.348129" />
  <rect
     style="fill:none;fill-opacity:1;stroke:#000000;stroke-width:4;stroke-linecap:round;stroke-linejoin:round;stroke-miterlimit:4;stroke-dasharray:none;stroke-dashoffset:0;stroke-opacity:1;paint-order:markers fill stroke"
     id="rect996-3-7-5"
     width="34.287762"
     height="34.287762"
     x="195.48073"
     y="38.348129" />
  <rect
     style="fill:none;fill-opacity:1;stroke:#000000;stroke-width:4;stroke-linecap:round;stroke-linejoin:round;stroke-miterlimit:4;stroke-dasharray:none;stroke-dashoffset:0;stroke-opacity:1;paint-order:markers fill stroke"
     id="rect996-3-2"
     width="34.287762"
     height="34.287762"
     x="77.701126"
     y="-72.356499"
     transform="rotate(90)" />
  <rect
     style="fill:none;fill-opacity:1;stroke:#000000;stroke-width:4;stroke-linecap:round;stroke-linejoin:round;stroke-miterlimit:4;stroke-dasharray:none;stroke-dashoffset:0;stroke-opacity:1;paint-order:markers fill stroke"
     id="rect996-3-1"
     width="34.287762"
     height="34.287762"
     x="77.421738"
     y="77.701126" />
  <rect
     style="fill:none;fill-opacity:1;stroke:#000000;stroke-width:4;stroke-linecap:round;stroke-linejoin:round;stroke-miterlimit:4;stroke-dasharray:none;stroke-dashoffset:0;stroke-opacity:1;paint-order:markers fill stroke"
     id="rect996-3-7-2"
     width="34.287762"
     height="34.287762"
     x="116.77473"
     y="77.701126" />
  <rect
     style="fill:none;fill-opacity:1;stroke:#000000;stroke-width:4;stroke-linecap:round;stroke-linejoin:round;stroke-miterlimit:4;stroke-dasharray:none;stroke-dashoffset:0;stroke-opacity:1;paint-order:markers fill stroke"
     id="rect996-3-3-7"
     width="34.287762"
     height="34.287762"
     x="156.12775"
     y="77.701126" />
  <rect
     style="fill:none;fill-opacity:1;stroke:#000000;stroke-width:4;stroke-linecap:round;stroke-linejoin:round;stroke-miterlimit:4;stroke-dasharray:none;stroke-dashoffset:0;stroke-opacity:1;paint-order:markers fill stroke"
     id="rect996-3-7-5-0"
     width="34.287762"
     height="34.287762"
     x="195.48073"
     y="77.701126" />
  <rect
     style="fill:none;fill-opacity:1;stroke:#000000;stroke-width:4;stroke-linecap:round;stroke-linejoin:round;stroke-miterlimit:4;stroke-dasharray:none;stroke-dashoffset:0;stroke-opacity:1;paint-order:markers fill stroke"
     id="rect996-3-2-0"
     width="34.287762"
     height="34.287762"
     x="117.05415"
     y="-72.356499"
     transform="rotate(90)" />
  <rect
     style="fill:none;fill-opacity:1;stroke:#000000;stroke-width:4;stroke-linecap:round;stroke-linejoin:round;stroke-miterlimit:4;stroke-dasharray:none;stroke-dashoffset:0;stroke-opacity:1;paint-order:markers fill stroke"
     id="rect996-3-1-2"
     width="34.287762"
     height="34.287762"
     x="77.421738"
     y="117.05415" />
  <rect
     style="fill:none;fill-opacity:1;stroke:#000000;stroke-width:4;stroke-linecap:round;stroke-linejoin:round;stroke-miterlimit:4;stroke-dasharray:none;stroke-dashoffset:0;stroke-opacity:1;paint-order:markers fill stroke"
     id="rect996-3-7-2-3"
     width="34.287762"
     height="34.287762"
     x="116.77473"
     y="117.05415" />
  <rect
     style="fill:none;fill-opacity:1;stroke:#000000;stroke-width:4;stroke-linecap:round;stroke-linejoin:round;stroke-miterlimit:4;stroke-dasharray:none;stroke-dashoffset:0;stroke-opacity:1;paint-order:markers fill stroke"
     id="rect996-3-3-7-7"
     width="34.287762"
     height="34.287762"
     x="156.12775"
     y="117.05415" />
  <rect
     style="fill:none;fill-opacity:1;stroke:#000000;stroke-width:4;stroke-linecap:round;stroke-linejoin:round;stroke-miterlimit:4;stroke-dasharray:none;stroke-dashoffset:0;stroke-opacity:1;paint-order:markers fill stroke"
     id="rect996-3-7-5-0-5"
     width="34.287762"
     height="34.287762"
     x="195.48073"
     y="117.05415" />
  <rect
     style="fill:none;fill-opacity:1;stroke:#000000;stroke-width:4;stroke-linecap:round;stroke-linejoin:round;stroke-miterlimit:4;stroke-dasharray:none;stroke-dashoffset:0;stroke-opacity:1;paint-order:markers fill stroke"
     id="rect996-3-2-2"
     width="34.287762"
     height="34.287762"
     x="156.40717"
     y="-72.356499"
     transform="rotate(90)" />
  <rect
     style="fill:none;fill-opacity:1;stroke:#000000;stroke-width:4;stroke-linecap:round;stroke-linejoin:round;stroke-miterlimit:4;stroke-dasharray:none;stroke-dashoffset:0;stroke-opacity:1;paint-order:markers fill stroke"
     id="rect996-3-1-28"
     width="34.287762"
     height="34.287762"
     x="77.421738"
     y="156.40717" />
  <rect
     style="fill:none;fill-opacity:1;stroke:#000000;stroke-width:4;stroke-linecap:round;stroke-linejoin:round;stroke-miterlimit:4;stroke-dasharray:none;stroke-dashoffset:0;stroke-opacity:1;paint-order:markers fill stroke"
     id="rect996-3-7-2-9"
     width="34.287762"
     height="34.287762"
     x="116.77473"
     y="156.40717" />
  <rect
     style="fill:none;fill-opacity:1;stroke:#000000;stroke-width:4;stroke-linecap:round;stroke-linejoin:round;stroke-miterlimit:4;stroke-dasharray:none;stroke-dashoffset:0;stroke-opacity:1;paint-order:markers fill stroke"
     id="rect996-3-3-7-73"
     width="34.287762"
     height="34.287762"
     x="156.12775"
     y="156.40717" />
  <rect
     style="fill:none;fill-opacity:1;stroke:#000000;stroke-width:4;stroke-linecap:round;stroke-linejoin:round;stroke-miterlimit:4;stroke-dasharray:none;stroke-dashoffset:0;stroke-opacity:1;paint-order:markers fill stroke"
     id="rect996-3-7-5-0-6"
     width="34.287762"
     height="34.287762"
     x="195.48073"
     y="156.40717" />
  <rect
     style="fill:none;fill-opacity:1;stroke:#000000;stroke-width:4;stroke-linecap:round;stroke-linejoin:round;stroke-miterlimit:4;stroke-dasharray:none;stroke-dashoffset:0;stroke-opacity:1;paint-order:markers fill stroke"
     id="rect996-3-2-0-1"
     width="34.287762"
     height="34.287762"
     x="195.76019"
     y="-72.356499"
     transform="rotate(90)" />
  <rect
     style="fill:none;fill-opacity:1;stroke:#000000;stroke-width:4;stroke-linecap:round;stroke-linejoin:round;stroke-miterlimit:4;stroke-dasharray:none;stroke-dashoffset:0;stroke-opacity:1;paint-order:markers fill stroke"
     id="rect996-3-1-2-2"
     width="34.287762"
     height="34.287762"
     x="77.421738"
     y="195.76019" />
  <rect
     style="fill:none;fill-opacity:1;stroke:#000000;stroke-width:4;stroke-linecap:round;stroke-linejoin:round;stroke-miterlimit:4;stroke-dasharray:none;stroke-dashoffset:0;stroke-opacity:1;paint-order:markers fill stroke"
     id="rect996-3-7-2-3-9"
     width="34.287762"
     height="34.287762"
     x="116.77473"
     y="195.76019" />
  <rect
     style="fill:none;fill-opacity:1;stroke:#000000;stroke-width:4;stroke-linecap:round;stroke-linejoin:round;stroke-miterlimit:4;stroke-dasharray:none;stroke-dashoffset:0;stroke-opacity:1;paint-order:markers fill stroke"
     id="rect996-3-3-7-7-3"
     width="34.287762"
     height="34.287762"
     x="156.12775"
     y="195.76019" />
  <rect
     style="fill:none;fill-opacity:1;stroke:#000000;stroke-width:4;stroke-linecap:round;stroke-linejoin:round;stroke-miterlimit:4;stroke-dasharray:none;stroke-dashoffset:0;stroke-opacity:1;paint-order:markers fill stroke"
     id="rect996-3-7-5-0-5-1"
     width="34.287762"
     height="34.287762"
     x="195.48073"
     y="195.76019" />
  <rect
     style="fill:none;fill-opacity:1;stroke:#000000;stroke-width:4;stroke-linecap:round;stroke-linejoin:round;stroke-miterlimit:4;stroke-dasharray:none;stroke-dashoffset:0;stroke-opacity:1;paint-order:markers fill stroke"
     id="rect996-3-2-4"
     width="34.287762"
     height="34.287762"
     x="235.11319"
     y="-72.356506"
     transform="rotate(90)" />
  <rect
     style="fill:none;fill-opacity:1;stroke:#000000;stroke-width:4;stroke-linecap:round;stroke-linejoin:round;stroke-miterlimit:4;stroke-dasharray:none;stroke-dashoffset:0;stroke-opacity:1;paint-order:markers fill stroke"
     id="rect996-3-1-7"
     width="34.287762"
     height="34.287762"
     x="77.421745"
     y="235.11319" />
  <rect
     style="fill:none;fill-opacity:1;stroke:#000000;stroke-width:4;stroke-linecap:round;stroke-linejoin:round;stroke-miterlimit:4;stroke-dasharray:none;stroke-dashoffset:0;stroke-opacity:1;paint-order:markers fill stroke"
     id="rect996-3-7-2-8"
     width="34.287762"
     height="34.287762"
     x="116.77473"
     y="235.11319" />
  <rect
     style="fill:none;fill-opacity:1;stroke:#000000;stroke-width:4;stroke-linecap:round;stroke-linejoin:round;stroke-miterlimit:4;stroke-dasharray:none;stroke-dashoffset:0;stroke-opacity:1;paint-order:markers fill stroke"
     id="rect996-3-3-7-4"
     width="34.287762"
     height="34.287762"
     x="156.12776"
     y="235.11319" />
  <rect
     style="fill:none;fill-opacity:1;stroke:#000000;stroke-width:4;stroke-linecap:round;stroke-linejoin:round;stroke-miterlimit:4;stroke-dasharray:none;stroke-dashoffset:0;stroke-opacity:1;paint-order:markers fill stroke"
     id="rect996-3-7-5-0-50"
     width="34.287762"
     height="34.287762"
     x="195.48073"
     y="235.11319" />
  <rect
     style="fill:none;fill-opacity:1;stroke:#000000;stroke-width:4;stroke-linecap:round;stroke-linejoin:round;stroke-miterlimit:4;stroke-dasharray:none;stroke-dashoffset:0;stroke-opacity:1;paint-order:markers fill stroke"
     id="rect996-3-2-0-3"
     width="34.287762"
     height="34.287762"
     x="274.46622"
     y="-72.356506"
     transform="rotate(90)" />
  <rect
     style="fill:none;fill-opacity:1;stroke:#000000;stroke-width:4;stroke-linecap:round;stroke-linejoin:round;stroke-miterlimit:4;stroke-dasharray:none;stroke-dashoffset:0;stroke-opacity:1;paint-order:markers fill stroke"
     id="rect996-3-1-2-6"
     width="34.287762"
     height="34.287762"
     x="77.421745"
     y="274.46622" />
  <rect
     style="fill:none;fill-opacity:1;stroke:#000000;stroke-width:4;stroke-linecap:round;stroke-linejoin:round;stroke-miterlimit:4;stroke-dasharray:none;stroke-dashoffset:0;stroke-opacity:1;paint-order:markers fill stroke"
     id="rect996-3-7-2-3-1"
     width="34.287762"
     height="34.287762"
     x="116.77473"
     y="274.46622" />
  <rect
     style="fill:none;fill-opacity:1;stroke:#000000;stroke-width:4;stroke-linecap:round;stroke-linejoin:round;stroke-miterlimit:4;stroke-dasharray:none;stroke-dashoffset:0;stroke-opacity:1;paint-order:markers fill stroke"
     id="rect996-3-3-7-7-0"
     width="34.287762"
     height="34.287762"
     x="156.12776"
     y="274.46622" />
  <rect
     style="fill:none;fill-opacity:1;stroke:#000000;stroke-width:4;stroke-linecap:round;stroke-linejoin:round;stroke-miterlimit:4;stroke-dasharray:none;stroke-dashoffset:0;stroke-opacity:1;paint-order:markers fill stroke"
     id="rect996-3-7-5-0-5-6"
     width="34.287762"
     height="34.287762"
     x="195.48073"
     y="274.46622" />
  <rect
     style="fill:none;fill-opacity:0.57641923;stroke:#000000;stroke-width:4;stroke-linecap:round;stroke-linejoin:round;stroke-miterlimit:4;stroke-dasharray:none;stroke-dashoffset:0;stroke-opacity:1;paint-order:markers fill stroke"
     id="rect996-3-2-2-6"
     width="34.287762"
     height="34.287762"
     x="130.54057"
     y="-270.62036"
     transform="rotate(90)" />
  <rect
     style="fill:none;fill-opacity:0.57641923;stroke:#000000;stroke-width:4;stroke-linecap:round;stroke-linejoin:round;stroke-miterlimit:4;stroke-dasharray:none;stroke-dashoffset:0;stroke-opacity:1;paint-order:markers fill stroke"
     id="rect996-3-1-28-1"
     width="34.287762"
     height="34.287762"
     x="275.68561"
     y="130.54057" />
  <rect
     style="fill:none;fill-opacity:0.57641923;stroke:#000000;stroke-width:4;stroke-linecap:round;stroke-linejoin:round;stroke-miterlimit:4;stroke-dasharray:none;stroke-dashoffset:0;stroke-opacity:1;paint-order:markers fill stroke"
     id="rect996-3-2-0-1-5"
     width="34.287762"
     height="34.287762"
     x="169.89359"
     y="-270.62036"
     transform="rotate(90)" />
  <rect
     style="fill:none;fill-opacity:0.57641923;stroke:#000000;stroke-width:4;stroke-linecap:round;stroke-linejoin:round;stroke-miterlimit:4;stroke-dasharray:none;stroke-dashoffset:0;stroke-opacity:1;paint-order:markers fill stroke"
     id="rect996-3-1-2-2-5"
     width="34.287762"
     height="34.287762"
     x="275.68561"
     y="169.89359" />
  <rect
     style="fill:none;fill-opacity:0.57641923;stroke:#000000;stroke-width:4;stroke-linecap:round;stroke-linejoin:round;stroke-miterlimit:4;stroke-dasharray:none;stroke-dashoffset:0;stroke-opacity:1;paint-order:markers fill stroke"
     id="rect996-3-2-4-4"
     width="34.287762"
     height="34.287762"
     x="209.24658"
     y="-270.62039"
     transform="rotate(90)" />
  <rect
     style="fill:none;fill-opacity:0.57641923;stroke:#000000;stroke-width:4;stroke-linecap:round;stroke-linejoin:round;stroke-miterlimit:4;stroke-dasharray:none;stroke-dashoffset:0;stroke-opacity:1;paint-order:markers fill stroke"
     id="rect996-3-1-7-7"
     width="34.287762"
     height="34.287762"
     x="275.68561"
     y="209.24658" />
  <rect
     style="fill:none;fill-opacity:0.57641923;stroke:#000000;stroke-width:4;stroke-linecap:round;stroke-linejoin:round;stroke-miterlimit:4;stroke-dasharray:none;stroke-dashoffset:0;stroke-opacity:1;paint-order:markers fill stroke"
     id="rect996-3-2-0-3-6"
     width="34.287762"
     height="34.287762"
     x="248.59961"
     y="-270.62039"
     transform="rotate(90)" />
  <rect
     style="fill:none;fill-opacity:0.57641923;stroke:#000000;stroke-width:4;stroke-linecap:round;stroke-linejoin:round;stroke-miterlimit:4;stroke-dasharray:none;stroke-dashoffset:0;stroke-opacity:1;paint-order:markers fill stroke"
     id="rect996-3-1-2-6-5"
     width="34.287762"
     height="34.287762"
     x="275.68561"
     y="248.59961" />
  <g
     aria-label="γ"
     style="font-style:normal;font-variant:normal;font-weight:900;font-stretch:normal;font-size:31.83839417px;line-height:1.25;font-family:'Ostrich Sans';-inkscape-font-specification:'Ostrich Sans, Heavy';font-variant-ligatures:normal;font-variant-caps:normal;font-variant-numeric:normal;font-feature-settings:normal;text-align:start;letter-spacing:0px;word-spacing:0px;writing-mode:lr-tb;text-anchor:start;fill:#000000;fill-opacity:1;stroke:none;stroke-width:0.79595983"
     id="text1309">
    <path
       d="m 254.06921,149.52968 2.82938,-6.12516 q 1.05714,-2.26973 1.94327,-3.07812 0.88612,-0.8084 2.31636,-0.8084 1.94326,0 1.94326,1.5857 0,1.52352 -1.86553,1.74116 -0.45083,0.0622 -0.5752,0.2021 -0.12437,0.13992 -0.49748,0.91722 l -4.50836,9.66967 q 0.45083,1.97435 0.45083,3.68442 0,3.38905 -2.06763,3.38905 -2.06763,0 -2.06763,-3.38905 0,-1.67897 0.46639,-3.68442 l -4.9903,-10.9289 q -1.11932,0 -1.66343,-0.37311 -0.54411,-0.38865 -0.54411,-1.21259 0,-1.60125 2.12981,-1.60125 h 2.14536 z"
       style="font-style:normal;font-variant:normal;font-weight:bold;font-stretch:normal;font-family:'Courier New';-inkscape-font-specification:'Courier New Bold';stroke-width:0.79595983"
       id="path1602" />
  </g>
  <g
     aria-label="ν"
     style="font-style:normal;font-variant:normal;font-weight:900;font-stretch:normal;font-size:31.83839417px;line-height:1.25;font-family:'Ostrich Sans';-inkscape-font-specification:'Ostrich Sans, Heavy';font-variant-ligatures:normal;font-variant-caps:normal;font-variant-numeric:normal;font-feature-settings:normal;text-align:start;letter-spacing:0px;word-spacing:0px;writing-mode:lr-tb;text-anchor:start;fill:#000000;fill-opacity:1;stroke:none;stroke-width:0.79595983"
     id="text1309-6">
    <path
       d="m 294.12178,149.60741 q 2.98485,-3.04703 2.98485,-5.59659 0,-0.7773 -0.38866,-1.91217 -0.34201,-1.0105 -0.34201,-1.46133 0,-0.59075 0.45084,-1.05714 0.46638,-0.48192 1.11931,-0.48192 1.10378,0 1.72562,1.49242 0.62184,1.49242 0.62184,3.40459 0,4.29072 -5.68986,9.63858 h -2.09873 l -5.14575,-10.9289 q -1.27478,0 -1.83444,-0.35756 -0.54411,-0.37311 -0.54411,-1.22814 0,-1.60125 2.12981,-1.60125 h 2.28527 z"
       style="font-style:normal;font-variant:normal;font-weight:bold;font-stretch:normal;font-family:'Courier New';-inkscape-font-specification:'Courier New Bold';stroke-width:0.79595983"
       id="path1599" />
  </g>
  <g
     aria-label="g"
     style="font-style:normal;font-variant:normal;font-weight:900;font-stretch:normal;font-size:31.83839417px;line-height:1.25;font-family:'Ostrich Sans';-inkscape-font-specification:'Ostrich Sans, Heavy';font-variant-ligatures:normal;font-variant-caps:normal;font-variant-numeric:normal;font-feature-settings:normal;text-align:start;letter-spacing:0px;word-spacing:0px;writing-mode:lr-tb;text-anchor:start;fill:#000000;fill-opacity:1;stroke:none;stroke-width:0.79595983"
     id="text1309-3">
    <path
       d="m 257.64481,179.81932 v -0.94831 h 3.73106 q 1.15041,0 1.63234,0.45084 0.49747,0.43529 0.49747,1.15041 0,0.69957 -0.49747,1.15041 -0.48193,0.43529 -1.63234,0.43529 h -0.54411 v 11.59738 q 0,1.67898 -0.71513,2.92267 -0.69957,1.25923 -2.1609,2.16091 -1.46133,0.90167 -3.29577,0.90167 h -3.6067 q -1.15041,0 -1.64788,-0.45084 -0.48193,-0.43529 -0.48193,-1.13486 0,-0.71512 0.48193,-1.16596 0.49747,-0.43529 1.64788,-0.43529 h 3.51342 q 1.46133,0 2.26973,-0.79285 0.8084,-0.79285 0.8084,-2.00545 v -1.5546 q -1.05714,0.68402 -2.16091,1.02604 -1.08823,0.34201 -2.23864,0.34201 -3.24913,0 -5.44113,-2.16091 -2.192,-2.17645 -2.192,-5.3634 0,-3.20249 2.192,-5.3634 2.192,-2.17645 5.44113,-2.17645 1.2126,0 2.30082,0.35756 1.10378,0.34201 2.09873,1.05713 z m -0.0156,6.10962 q 0,-1.75671 -1.30587,-3.04704 -1.29033,-1.29032 -3.10922,-1.29032 -1.81889,0 -3.12476,1.29032 -1.29033,1.29033 -1.29033,3.04704 0,1.77225 1.29033,3.06258 1.30587,1.27478 3.12476,1.27478 1.81889,0 3.10922,-1.27478 1.30587,-1.29033 1.30587,-3.06258 z"
       style="font-style:normal;font-variant:normal;font-weight:bold;font-stretch:normal;font-family:'Courier New';-inkscape-font-specification:'Courier New Bold';stroke-width:0.79595983"
       id="path1596" />
  </g>
  <g
     aria-label="e"
     style="font-style:normal;font-variant:normal;font-weight:900;font-stretch:normal;font-size:31.83839417px;line-height:1.25;font-family:'Ostrich Sans';-inkscape-font-specification:'Ostrich Sans, Heavy';font-variant-ligatures:normal;font-variant-caps:normal;font-variant-numeric:normal;font-feature-settings:normal;text-align:start;letter-spacing:0px;word-spacing:0px;writing-mode:lr-tb;text-anchor:start;fill:#000000;fill-opacity:1;stroke:none;stroke-width:0.79595983"
     id="text1309-6-6">
    <path
       d="m 301.49062,187.54573 h -13.07426 q 0.49748,1.24369 1.75671,2.00545 1.27478,0.76175 3.43569,0.76175 1.77225,0 4.71046,-0.76175 1.2126,-0.31093 1.67898,-0.31093 0.63739,0 1.07268,0.45084 0.43529,0.45084 0.43529,1.13487 0,0.62184 -0.46638,1.05713 -0.62185,0.57521 -3.03149,1.10377 -2.40964,0.51302 -4.63274,0.51302 -3.82433,0 -6.12516,-2.1609 -2.28527,-2.16091 -2.28527,-5.31677 0,-3.35795 2.47183,-5.45667 2.48737,-2.11427 5.72096,-2.11427 1.94326,0 3.56005,0.68403 1.63234,0.68402 2.42519,1.47687 1.11932,1.15041 1.84999,2.84494 0.49747,1.1815 0.49747,2.73611 z m -3.52896,-3.18695 q -0.73067,-1.36805 -1.91217,-2.03654 -1.1815,-0.68402 -2.81384,-0.68402 -1.61679,0 -2.7983,0.68402 -1.1815,0.66849 -1.92771,2.03654 z"
       style="font-style:normal;font-variant:normal;font-weight:bold;font-stretch:normal;font-family:'Courier New';-inkscape-font-specification:'Courier New Bold';stroke-width:0.79595983"
       id="path1593" />
  </g>
  <g
     aria-label="g"
     style="font-style:normal;font-variant:normal;font-weight:900;font-stretch:normal;font-size:31.83839417px;line-height:1.25;font-family:'Ostrich Sans';-inkscape-font-specification:'Ostrich Sans, Heavy';font-variant-ligatures:normal;font-variant-caps:normal;font-variant-numeric:normal;font-feature-settings:normal;text-align:start;letter-spacing:0px;word-spacing:0px;writing-mode:lr-tb;text-anchor:start;fill:#000000;fill-opacity:1;stroke:none;stroke-width:0.79595983"
     id="text1309-1">
    <path
       d="m 257.64484,219.17234 v -0.94832 h 3.73106 q 1.15041,0 1.63234,0.45084 0.49747,0.43529 0.49747,1.15041 0,0.69958 -0.49747,1.15041 -0.48193,0.43529 -1.63234,0.43529 h -0.54411 v 11.59739 q 0,1.67897 -0.71512,2.92266 -0.69958,1.25923 -2.16091,2.16091 -1.46133,0.90167 -3.29577,0.90167 h -3.6067 q -1.15041,0 -1.64788,-0.45084 -0.48193,-0.43529 -0.48193,-1.13486 0,-0.71512 0.48193,-1.16596 0.49747,-0.43529 1.64788,-0.43529 h 3.51342 q 1.46133,0 2.26973,-0.79285 0.8084,-0.79285 0.8084,-2.00544 v -1.55461 q -1.05714,0.68403 -2.16091,1.02604 -1.08823,0.34201 -2.23864,0.34201 -3.24913,0 -5.44113,-2.1609 -2.192,-2.17646 -2.192,-5.3634 0,-3.2025 2.192,-5.36341 2.192,-2.17645 5.44113,-2.17645 1.2126,0 2.30082,0.35756 1.10378,0.34202 2.09873,1.05714 z m -0.0155,6.10961 q 0,-1.75671 -1.30587,-3.04703 -1.29033,-1.29033 -3.10922,-1.29033 -1.81889,0 -3.12476,1.29033 -1.29033,1.29032 -1.29033,3.04703 0,1.77225 1.29033,3.06258 1.30587,1.27478 3.12476,1.27478 1.81889,0 3.10922,-1.27478 1.30587,-1.29033 1.30587,-3.06258 z"
       style="font-style:normal;font-variant:normal;font-weight:bold;font-stretch:normal;font-family:'Courier New';-inkscape-font-specification:'Courier New Bold';stroke-width:0.79595983"
       id="path1590" />
  </g>
  <g
     aria-label="γ"
     style="font-style:normal;font-variant:normal;font-weight:900;font-stretch:normal;font-size:31.83839417px;line-height:1.25;font-family:'Ostrich Sans';-inkscape-font-specification:'Ostrich Sans, Heavy';font-variant-ligatures:normal;font-variant-caps:normal;font-variant-numeric:normal;font-feature-settings:normal;text-align:start;letter-spacing:0px;word-spacing:0px;writing-mode:lr-tb;text-anchor:start;fill:#000000;fill-opacity:1;stroke:none;stroke-width:0.79595983"
     id="text1309-6-7">
    <path
       d="m 293.42223,228.23571 2.82939,-6.12516 q 1.05714,-2.26973 1.94326,-3.07813 0.88613,-0.8084 2.31637,-0.8084 1.94326,0 1.94326,1.58571 0,1.52351 -1.86553,1.74116 -0.45084,0.0622 -0.5752,0.2021 -0.12437,0.13991 -0.49748,0.91722 l -4.50837,9.66966 q 0.45084,1.97436 0.45084,3.68443 0,3.38905 -2.06763,3.38905 -2.06763,0 -2.06763,-3.38905 0,-1.67898 0.46638,-3.68443 l -4.99029,-10.9289 q -1.11932,0 -1.66343,-0.3731 -0.54412,-0.38866 -0.54412,-1.2126 0,-1.60125 2.12982,-1.60125 h 2.14536 z"
       style="font-style:normal;font-variant:normal;font-weight:bold;font-stretch:normal;font-family:'Courier New';-inkscape-font-specification:'Courier New Bold';stroke-width:0.79595983"
       id="path1587" />
  </g>
  <g
     aria-label="ν"
     style="font-style:normal;font-variant:normal;font-weight:900;font-stretch:normal;font-size:31.83839417px;line-height:1.25;font-family:'Ostrich Sans';-inkscape-font-specification:'Ostrich Sans, Heavy';font-variant-ligatures:normal;font-variant-caps:normal;font-variant-numeric:normal;font-feature-settings:normal;text-align:start;letter-spacing:0px;word-spacing:0px;writing-mode:lr-tb;text-anchor:start;fill:#000000;fill-opacity:1;stroke:none;stroke-width:0.79595983"
     id="text1309-3-9">
    <path
       d="m 254.76881,267.66646 q 2.98485,-3.04703 2.98485,-5.59659 0,-0.7773 -0.38865,-1.91217 -0.34202,-1.01049 -0.34202,-1.46133 0,-0.59075 0.45084,-1.05713 0.46638,-0.48193 1.11932,-0.48193 1.10377,0 1.72561,1.49242 0.62185,1.49243 0.62185,3.4046 0,4.29072 -5.68987,9.63857 h -2.09872 l -5.14576,-10.9289 q -1.27478,0 -1.83444,-0.35756 -0.54411,-0.37311 -0.54411,-1.22814 0,-1.60125 2.12981,-1.60125 h 2.28528 z"
       style="font-style:normal;font-variant:normal;font-weight:bold;font-stretch:normal;font-family:'Courier New';-inkscape-font-specification:'Courier New Bold';stroke-width:0.79595983"
       id="path1584" />
  </g>
  <g
     aria-label="e"
     style="font-style:normal;font-variant:normal;font-weight:900;font-stretch:normal;font-size:31.83839417px;line-height:1.25;font-family:'Ostrich Sans';-inkscape-font-specification:'Ostrich Sans, Heavy';font-variant-ligatures:normal;font-variant-caps:normal;font-variant-numeric:normal;font-feature-settings:normal;text-align:start;letter-spacing:0px;word-spacing:0px;writing-mode:lr-tb;text-anchor:start;fill:#000000;fill-opacity:1;stroke:none;stroke-width:0.79595983"
     id="text1309-6-6-6">
    <path
       d="m 301.49065,266.25177 h -13.07426 q 0.49748,1.24369 1.75671,2.00545 1.27478,0.76175 3.43569,0.76175 1.77225,0 4.71046,-0.76175 1.2126,-0.31093 1.67898,-0.31093 0.63739,0 1.07268,0.45084 0.43529,0.45084 0.43529,1.13486 0,0.62185 -0.46638,1.05714 -0.62185,0.5752 -3.03149,1.10377 -2.40964,0.51302 -4.63274,0.51302 -3.82433,0 -6.12516,-2.1609 -2.28527,-2.16091 -2.28527,-5.31677 0,-3.35795 2.47183,-5.45668 2.48737,-2.11426 5.72096,-2.11426 1.94326,0 3.56005,0.68402 1.63234,0.68403 2.42519,1.47688 1.11932,1.15041 1.84999,2.84494 0.49747,1.1815 0.49747,2.73611 z m -3.52896,-3.18695 q -0.73066,-1.36805 -1.91217,-2.03654 -1.1815,-0.68402 -2.81384,-0.68402 -1.61679,0 -2.7983,0.68402 -1.1815,0.66849 -1.92771,2.03654 z"
       style="font-style:normal;font-variant:normal;font-weight:bold;font-stretch:normal;font-family:'Courier New';-inkscape-font-specification:'Courier New Bold';stroke-width:0.79595983"
       id="path1581" />
  </g>
</svg>
