<svg id="render" xmlns="http://www.w3.org/2000/svg" xmlns:xlink="http://www.w3.org/1999/xlink" width="512" height="512"><circle cx="256" cy="256" r="224" stroke="black" stroke-width="6" fill="none"></circle><circle cx="256" cy="256" r="96" stroke="black" stroke-width="6" fill="none"></circle><line x1="313.9754661029647" y1="39.63261491124871" x2="297.4110472164033" y2="101.45186779374907" stroke="black" stroke-width="0.5" fill="none"></line><circle cx="297.4110472164033" cy="101.45186779374907" r="16" fill="black"></circle><path d="M 297.4110472164033 101.45186779374907 A 160 160 0 0 0 214.58895278359665 101.45186779374907" fill="none" stroke="black" stroke-width="0.5"></path><line x1="280.846628329842" y1="163.27112067624944" x2="297.4110472164033" y2="101.45186779374907" stroke="black" stroke-width="0.5" fill="none"></line><line x1="414.3919189857867" y1="97.60808101421338" x2="369.1370849898476" y2="142.8629150101524" stroke="black" stroke-width="6" fill="none"></line><path d="M 369.1370849898476 142.8629150101524 A 160 160 0 0 0 297.41104721640335 101.4518677937491" fill="none" stroke="black" stroke-width="0.5"></path><line x1="323.88225099390854" y1="188.11774900609146" x2="369.1370849898476" y2="142.8629150101524" stroke="black" stroke-width="6" fill="none"></line><line x1="472.3673850887513" y1="198.02453389703538" x2="410.5481322062509" y2="214.58895278359668" stroke="black" stroke-width="0.5" fill="none"></line><circle cx="410.5481322062509" cy="214.58895278359668" r="16" fill="black"></circle><path d="M 410.5481322062509 214.58895278359668 A 160 160 0 0 0 369.1370849898476 142.8629150101524" fill="none" stroke="black" stroke-width="6"></path><line x1="348.72887932375056" y1="231.153371670158" x2="410.5481322062509" y2="214.58895278359668" stroke="black" stroke-width="0.5" fill="none"></line><line x1="472.3673850887513" y1="313.9754661029647" x2="410.5481322062509" y2="297.41104721640335" stroke="black" stroke-width="6" fill="none"></line><path d="M 410.5481322062509 297.41104721640335 A 160 160 0 0 0 410.5481322062509 214.5889527835967" fill="none" stroke="black" stroke-width="6"></path><line x1="348.72887932375056" y1="280.846628329842" x2="410.5481322062509" y2="297.41104721640335" stroke="black" stroke-width="0.5" fill="none"></line><line x1="414.3919189857867" y1="414.3919189857866" x2="369.1370849898476" y2="369.1370849898476" stroke="black" stroke-width="6" fill="none"></line><path d="M 369.1370849898476 369.1370849898476 A 160 160 0 0 0 410.5481322062509 297.41104721640335" fill="none" stroke="black" stroke-width="6"></path><line x1="323.88225099390854" y1="323.88225099390854" x2="369.1370849898476" y2="369.1370849898476" stroke="black" stroke-width="6" fill="none"></line><line x1="313.9754661029647" y1="472.3673850887513" x2="297.41104721640335" y2="410.5481322062509" stroke="black" stroke-width="6" fill="none"></line><path d="M 297.41104721640335 410.5481322062509 A 160 160 0 0 0 369.1370849898476 369.1370849898476" fill="none" stroke="black" stroke-width="6"></path><line x1="280.846628329842" y1="348.72887932375056" x2="297.41104721640335" y2="410.5481322062509" stroke="black" stroke-width="6" fill="none"></line><line x1="198.02453389703544" y1="472.36738508875135" x2="214.58895278359674" y2="410.54813220625095" stroke="black" stroke-width="6" fill="none"></line><path d="M 214.58895278359674 410.54813220625095 A 160 160 0 0 0 297.41104721640335 410.5481322062509" fill="none" stroke="black" stroke-width="6"></path><line x1="231.15337167015804" y1="348.72887932375056" x2="214.58895278359674" y2="410.54813220625095" stroke="black" stroke-width="6" fill="none"></line><line x1="97.60808101421338" y1="414.3919189857867" x2="142.8629150101524" y2="369.1370849898476" stroke="black" stroke-width="0.5" fill="none"></line><circle cx="142.8629150101524" cy="369.1370849898476" r="16" fill="black"></circle><path d="M 142.8629150101524 369.1370849898476 A 160 160 0 0 0 214.58895278359665 410.5481322062509" fill="none" stroke="black" stroke-width="0.5"></path><line x1="188.11774900609146" y1="323.88225099390854" x2="142.8629150101524" y2="369.1370849898476" stroke="black" stroke-width="0.5" fill="none"></line><line x1="39.63261491124871" y1="313.9754661029646" x2="101.45186779374907" y2="297.4110472164033" stroke="black" stroke-width="0.5" fill="none"></line><circle cx="101.45186779374907" cy="297.4110472164033" r="16" fill="black"></circle><path d="M 101.45186779374907 297.4110472164033 A 160 160 0 0 0 142.86291501015234 369.13708498984755" fill="none" stroke="black" stroke-width="0.5"></path><line x1="163.27112067624944" y1="280.84662832984196" x2="101.45186779374907" y2="297.4110472164033" stroke="black" stroke-width="6" fill="none"></line><line x1="39.63261491124868" y1="198.02453389703544" x2="101.45186779374905" y2="214.58895278359674" stroke="black" stroke-width="0.5" fill="none"></line><path d="M 101.45186779374905 214.58895278359674 A 160 160 0 0 0 101.4518677937491 297.41104721640335" fill="none" stroke="black" stroke-width="0.5"></path><line x1="163.27112067624944" y1="231.15337167015804" x2="101.45186779374905" y2="214.58895278359674" stroke="black" stroke-width="6" fill="none"></line><line x1="97.60808101421333" y1="97.60808101421338" x2="142.86291501015236" y2="142.8629150101524" stroke="black" stroke-width="6" fill="none"></line><path d="M 142.86291501015236 142.8629150101524 A 160 160 0 0 0 101.45186779374907 214.58895278359668" fill="none" stroke="black" stroke-width="0.5"></path><line x1="188.11774900609143" y1="188.11774900609146" x2="142.86291501015236" y2="142.8629150101524" stroke="black" stroke-width="6" fill="none"></line><line x1="198.02453389703538" y1="39.63261491124871" x2="214.5889527835967" y2="101.45186779374907" stroke="black" stroke-width="6" fill="none"></line><path d="M 214.5889527835967 101.45186779374907 A 160 160 0 0 0 142.86291501015242 142.86291501015236" fill="none" stroke="black" stroke-width="6"></path><line x1="231.153371670158" y1="163.27112067624944" x2="214.5889527835967" y2="101.45186779374907" stroke="black" stroke-width="6" fill="none"></line></svg>
