<?xml version="1.0" encoding="UTF-8" standalone="no"?>
<svg
   id="render"
   width="512"
   height="512"
   version="1.1"
   sodipodi:docname="maze_0.svg"
   inkscape:version="1.1 (c68e22c387, 2021-05-23)"
   xmlns:inkscape="http://www.inkscape.org/namespaces/inkscape"
   xmlns:sodipodi="http://sodipodi.sourceforge.net/DTD/sodipodi-0.dtd"
   xmlns="http://www.w3.org/2000/svg"
   xmlns:svg="http://www.w3.org/2000/svg">
  <defs
     id="defs959" />
  <sodipodi:namedview
     id="namedview957"
     pagecolor="#ffffff"
     bordercolor="#666666"
     borderopacity="1.0"
     inkscape:pageshadow="2"
     inkscape:pageopacity="0.0"
     inkscape:pagecheckerboard="0"
     showgrid="false"
     inkscape:zoom="1.6582031"
     inkscape:cx="256"
     inkscape:cy="256"
     inkscape:window-width="1858"
     inkscape:window-height="1057"
     inkscape:window-x="1974"
     inkscape:window-y="-8"
     inkscape:window-maximized="1"
     inkscape:current-layer="render" />
  <path
     id="circle824"
     style="fill:none;stroke:#000000;stroke-width:6"
     d="M 480,256 A 224,224 0 0 1 256,480 224,224 0 0 1 32,256 224,224 0 0 1 256,32 224,224 0 0 1 480,256 Z" />
  <path
     id="circle826"
     style="fill:none;stroke:#000000;stroke-width:6"
     d="m 352,256 a 96,96 0 0 1 -96,96 96,96 0 0 1 -96,-96 96,96 0 0 1 96,-96 96,96 0 0 1 96,96 z" />
  <path
     id="line828"
     style="fill:none;stroke:#000000;stroke-width:0.5"
     d="M 313.97546,39.632614 297.41104,101.45187" />
  <path
     d="M 297.4110472164033 101.45186779374907 A 160 160 0 0 0 214.58895278359665 101.45186779374907"
     fill="none"
     stroke="black"
     stroke-width="6"
     id="path830" />
  <path
     id="line832"
     style="fill:none;stroke:#000000;stroke-width:6"
     d="m 280.84662,163.27112 16.56442,-61.81925" />
  <path
     id="line834"
     style="fill:none;stroke:#000000;stroke-width:0.5"
     d="M 414.39191,97.608078 369.13708,142.86292" />
  <path
     d="M 369.1370849898476 142.8629150101524 A 160 160 0 0 0 297.41104721640335 101.4518677937491"
     fill="none"
     stroke="black"
     stroke-width="6"
     id="path836" />
  <path
     id="line838"
     style="fill:none;stroke:#000000;stroke-width:6"
     d="m 323.88226,188.11775 45.25482,-45.25483" />
  <path
     id="line840"
     style="fill:none;stroke:#000000;stroke-width:6"
     d="m 472.36737,198.02454 -61.81924,16.56442" />
  <path
     d="M 410.5481322062509 214.58895278359668 A 160 160 0 0 0 369.1370849898476 142.8629150101524"
     fill="none"
     stroke="black"
     stroke-width="6"
     id="path842" />
  <path
     id="line844"
     style="fill:none;stroke:#000000;stroke-width:0.5"
     d="m 348.72888,231.15337 61.81925,-16.56441" />
  <path
     id="line846"
     style="fill:none;stroke:#000000;stroke-width:0.5"
     d="M 472.36737,313.97546 410.54813,297.41104" />
  <path
     id="circle848"
     d="m 426.54813,297.41104 a 16,16 0 0 1 -16,16 16,16 0 0 1 -16,-16 16,16 0 0 1 16,-16 16,16 0 0 1 16,16 z" />
  <path
     d="M 410.5481322062509 297.41104721640335 A 160 160 0 0 0 410.5481322062509 214.5889527835967"
     fill="none"
     stroke="black"
     stroke-width="0.5"
     id="path850" />
  <path
     id="line852"
     style="fill:none;stroke:#000000;stroke-width:0.5"
     d="m 348.72888,280.84662 61.81925,16.56442" />
  <path
     id="line854"
     style="fill:none;stroke:#000000;stroke-width:6"
     d="M 414.39191,414.39191 369.13708,369.13708" />
  <path
     d="M 369.1370849898476 369.1370849898476 A 160 160 0 0 0 410.5481322062509 297.41104721640335"
     fill="none"
     stroke="black"
     stroke-width="6"
     id="path856" />
  <path
     id="line858"
     style="fill:none;stroke:#000000;stroke-width:6"
     d="m 323.88226,323.88226 45.25482,45.25482" />
  <path
     id="line860"
     style="fill:none;stroke:#000000;stroke-width:0.5"
     d="M 313.97546,472.36737 297.41104,410.54813" />
  <path
     id="circle862"
     d="m 313.41104,410.54813 a 16,16 0 0 1 -16,16 16,16 0 0 1 -16,-16 16,16 0 0 1 16,-16 16,16 0 0 1 16,16 z" />
  <path
     d="M 297.41104721640335 410.5481322062509 A 160 160 0 0 0 369.1370849898476 369.1370849898476"
     fill="none"
     stroke="black"
     stroke-width="0.5"
     id="path864" />
  <path
     id="line866"
     style="fill:none;stroke:#000000;stroke-width:6"
     d="m 280.84662,348.72888 16.56442,61.81925" />
  <path
     id="line868"
     style="fill:none;stroke:#000000;stroke-width:6"
     d="m 198.02454,472.36737 16.56442,-61.81924" />
  <path
     d="M 214.58895278359674 410.54813220625095 A 160 160 0 0 0 297.41104721640335 410.5481322062509"
     fill="none"
     stroke="black"
     stroke-width="0.5"
     id="path870" />
  <path
     id="line872"
     style="fill:none;stroke:#000000;stroke-width:6"
     d="m 231.15337,348.72888 -16.56441,61.81925" />
  <path
     id="line874"
     style="fill:none;stroke:#000000;stroke-width:0.5"
     d="M 97.608078,414.39191 142.86292,369.13708" />
  <path
     id="circle876"
     d="m 158.86292,369.13708 a 16,16 0 0 1 -16,16 16,16 0 0 1 -16,-16 16,16 0 0 1 16,-16 16,16 0 0 1 16,16 z" />
  <path
     d="M 142.8629150101524 369.1370849898476 A 160 160 0 0 0 214.58895278359665 410.5481322062509"
     fill="none"
     stroke="black"
     stroke-width="0.5"
     id="path878" />
  <path
     id="line880"
     style="fill:none;stroke:#000000;stroke-width:0.5"
     d="m 188.11775,323.88226 -45.25483,45.25482" />
  <path
     id="line882"
     style="fill:none;stroke:#000000;stroke-width:6"
     d="M 39.632614,313.97546 101.45187,297.41104" />
  <path
     id="circle884"
     d="m 117.45187,297.41104 a 16,16 0 0 1 -16,16 16,16 0 0 1 -16.000004,-16 16,16 0 0 1 16.000004,-16 16,16 0 0 1 16,16 z" />
  <path
     d="M 101.45186779374907 297.4110472164033 A 160 160 0 0 0 142.86291501015234 369.13708498984755"
     fill="none"
     stroke="black"
     stroke-width="0.5"
     id="path886" />
  <path
     id="line888"
     style="fill:none;stroke:#000000;stroke-width:0.5"
     d="m 163.27112,280.84662 -61.81925,16.56442" />
  <path
     id="line890"
     style="fill:none;stroke:#000000;stroke-width:0.5"
     d="m 39.632614,198.02454 61.819256,16.56442" />
  <path
     d="M 101.45186779374905 214.58895278359674 A 160 160 0 0 0 101.4518677937491 297.41104721640335"
     fill="none"
     stroke="black"
     stroke-width="6"
     id="path892" />
  <path
     id="line894"
     style="fill:none;stroke:#000000;stroke-width:0.5"
     d="M 163.27112,231.15337 101.45187,214.58896" />
  <path
     id="line896"
     style="fill:none;stroke:#000000;stroke-width:0.5"
     d="M 97.608078,97.608078 142.86292,142.86292" />
  <path
     d="M 142.86291501015236 142.8629150101524 A 160 160 0 0 0 101.45186779374907 214.58895278359668"
     fill="none"
     stroke="black"
     stroke-width="6"
     id="path898" />
  <path
     id="line900"
     style="fill:none;stroke:#000000;stroke-width:6"
     d="M 188.11775,188.11775 142.86292,142.86292" />
  <path
     id="line902"
     style="fill:none;stroke:#000000;stroke-width:6"
     d="m 198.02454,39.632614 16.56442,61.819256" />
  <path
     d="M 214.5889527835967 101.45186779374907 A 160 160 0 0 0 142.86291501015242 142.86291501015236"
     fill="none"
     stroke="black"
     stroke-width="6"
     id="path904" />
  <path
     id="line906"
     style="fill:none;stroke:#000000;stroke-width:0.5"
     d="M 231.15337,163.27112 214.58896,101.45187" />
  <g
     aria-label="C"
     id="text908"
     class="note"
     style="font-size:24px;font-family:'B612 Mono';dominant-baseline:middle;text-anchor:middle">
    <path
       d="m 262.84,69.004 q -1.224,0.972 -2.568,1.392 -1.332,0.408 -2.904,0.408 -1.86,0 -3.336,-0.744 -1.476,-0.756 -2.508,-2.04 -1.032,-1.284 -1.584,-3 -0.54,-1.716 -0.54,-3.648 0,-1.212 0.204,-2.34 0.204,-1.14 0.624,-2.136 0.42,-1.008 1.068,-1.824 0.648,-0.828 1.536,-1.416 0.9,-0.6 2.04,-0.924 1.14,-0.336 2.544,-0.336 1.56,0 2.964,0.528 1.404,0.528 2.46,1.548 l -1.776,2.208 q -0.396,-0.264 -0.84,-0.504 -0.432,-0.24 -0.876,-0.42 -0.444,-0.18 -0.888,-0.288 -0.444,-0.108 -0.852,-0.108 -1.14,0 -1.908,0.468 -0.768,0.468 -1.236,1.284 -0.468,0.804 -0.672,1.896 -0.192,1.092 -0.192,2.328 0,0.732 0.096,1.5 0.108,0.756 0.312,1.476 0.216,0.72 0.54,1.356 0.336,0.636 0.78,1.116 0.456,0.468 1.032,0.744 0.576,0.276 1.296,0.276 0.408,0 0.804,-0.06 0.396,-0.072 0.828,-0.216 0.444,-0.156 0.96,-0.396 0.516,-0.252 1.164,-0.612 z"
       style="font-size:24px;font-family:'B612 Mono';dominant-baseline:middle;text-anchor:middle"
       id="path1154" />
  </g>
  <g
     aria-label="G"
     id="text910"
     class="note"
     style="font-size:24px;font-family:'B612 Mono';dominant-baseline:middle;text-anchor:middle">
    <path
       d="m 359.212,93.671122 q -0.54,0.6 -1.212,1.128 -0.672,0.516 -1.488,0.9 -0.816,0.384 -1.776,0.612 -0.948,0.216 -2.04,0.216 -1.86,0 -3.336,-0.744 -1.476,-0.756 -2.508,-2.04 -1.032,-1.284 -1.584,-3 -0.54,-1.716 -0.54,-3.648 0,-1.212 0.216,-2.34 0.216,-1.14 0.66,-2.136 0.444,-1.008 1.116,-1.824 0.684,-0.828 1.596,-1.416 0.912,-0.6 2.064,-0.924 1.164,-0.336 2.58,-0.336 1.56,0 2.964,0.528 1.404,0.528 2.46,1.548 l -1.776,2.088 q -0.396,-0.264 -0.828,-0.504 -0.432,-0.24 -0.888,-0.42 -0.444,-0.18 -0.888,-0.288 -0.444,-0.108 -0.864,-0.108 -1.14,0 -1.944,0.492 -0.792,0.48 -1.296,1.32 -0.504,0.828 -0.732,1.944 -0.228,1.104 -0.228,2.34 0,0.732 0.096,1.512 0.108,0.768 0.312,1.512 0.216,0.732 0.54,1.38 0.336,0.648 0.78,1.14 0.456,0.492 1.032,0.78 0.576,0.288 1.296,0.288 0.3,0 0.612,-0.072 0.324,-0.072 0.612,-0.18 0.3,-0.12 0.552,-0.264 0.264,-0.144 0.456,-0.3 v -3.924 l -3.528,-0.228 v -2.46 h 7.512 z"
       style="font-size:24px;font-family:'B612 Mono';dominant-baseline:middle;text-anchor:middle"
       id="path1151" />
  </g>
  <g
     aria-label="D"
     id="text912"
     class="note"
     style="font-size:24px;font-family:'B612 Mono';dominant-baseline:middle;text-anchor:middle">
    <path
       d="m 415.26889,148.6 q 0.588,-0.06 1.248,-0.096 0.66,-0.036 1.296,-0.06 0.648,-0.024 1.212,-0.036 0.576,-0.012 0.972,-0.012 2.016,0 3.72,0.492 1.716,0.48 2.964,1.512 1.248,1.032 1.956,2.652 0.708,1.608 0.708,3.864 0,1.74 -0.348,3.144 -0.348,1.392 -0.984,2.472 -0.624,1.068 -1.5,1.848 -0.876,0.768 -1.932,1.26 -1.044,0.492 -2.232,0.732 -1.188,0.228 -2.448,0.228 h -4.224 v -15.144 z m 4.62,4.548 V 163.6 q 1.26,0 2.136,-0.3 0.876,-0.312 1.464,-0.816 0.588,-0.516 0.912,-1.176 0.324,-0.66 0.492,-1.356 0.168,-0.708 0.204,-1.404 0.036,-0.696 0.036,-1.284 0,-1.344 -0.216,-2.46 -0.204,-1.116 -0.78,-1.92 -0.576,-0.804 -1.596,-1.236 -1.02,-0.444 -2.64,-0.444 -0.036,0 -0.084,0.012 -0.036,0 -0.084,0 h -0.096 z"
       style="font-size:24px;font-family:'B612 Mono';dominant-baseline:middle;text-anchor:middle"
       id="path1148" />
  </g>
  <g
     aria-label="A"
     id="text914"
     class="note"
     style="font-size:24px;font-family:'B612 Mono';dominant-baseline:middle;text-anchor:middle">
    <path
       d="m 440.8,262.6 4.26,-15.408 0.432,-2.592 4.536,-0.24 5.172,18.24 h -4.008 l -1.248,-5.124 h -4.104 l -1.212,5.124 z m 7.116,-15.972 -0.468,4.092 -0.9,4.128 h 2.688 l -0.864,-4.128 z"
       style="font-size:24px;font-family:'B612 Mono';dominant-baseline:middle;text-anchor:middle"
       id="path1145" />
  </g>
  <g
     aria-label="E"
     id="text916"
     class="note"
     style="font-size:24px;font-family:'B612 Mono';dominant-baseline:middle;text-anchor:middle">
    <path
       d="m 428.12089,355.864 -0.324,2.736 h -11.52 l 0.204,-2.772 v -12.384 l -0.42,-2.844 h 11.616 v 2.736 h -7.164 l 0.18,1.656 v 2.616 h 6.192 v 2.556 h -6.192 v 4.116 l -0.096,1.584 z"
       style="font-size:24px;font-family:'B612 Mono';dominant-baseline:middle;text-anchor:middle"
       id="path1142" />
  </g>
  <g
     aria-label="B"
     id="text918"
     class="note"
     style="font-size:24px;font-family:'B612 Mono';dominant-baseline:middle;text-anchor:middle">
    <path
       d="m 349.864,415.31689 v 2.76 h 0.348 q 0.564,0 1.128,-0.156 0.576,-0.156 1.032,-0.48 0.456,-0.336 0.744,-0.852 0.288,-0.516 0.288,-1.248 0,-0.66 -0.276,-1.08 -0.276,-0.42 -0.708,-0.648 -0.432,-0.228 -0.96,-0.312 -0.516,-0.084 -1.008,-0.084 -0.168,0 -0.384,0.012 -0.216,0.012 -0.396,0.036 z m -4.212,13.56 v -15.144 l -0.384,-2.724 q 0.516,-0.072 1.128,-0.132 0.612,-0.06 1.212,-0.108 0.612,-0.048 1.164,-0.072 0.552,-0.024 0.948,-0.024 1.44,0 2.784,0.204 1.344,0.192 2.376,0.696 1.044,0.504 1.668,1.368 0.624,0.852 0.624,2.16 0,0.648 -0.192,1.224 -0.18,0.576 -0.516,1.068 -0.324,0.492 -0.804,0.888 -0.468,0.396 -1.044,0.684 0.768,0.264 1.44,0.636 0.684,0.372 1.188,0.888 0.504,0.516 0.792,1.188 0.288,0.66 0.288,1.5 0,1.056 -0.3,1.896 -0.3,0.828 -0.816,1.464 -0.504,0.624 -1.2,1.08 -0.696,0.444 -1.488,0.732 -0.78,0.276 -1.632,0.408 -0.84,0.12 -1.656,0.12 z m 4.212,-2.736 h 0.684 q 0.9,0 1.596,-0.132 0.708,-0.144 1.188,-0.48 0.492,-0.336 0.744,-0.876 0.264,-0.54 0.264,-1.356 0,-0.768 -0.252,-1.296 -0.252,-0.528 -0.696,-0.84 -0.444,-0.324 -1.056,-0.456 -0.612,-0.144 -1.332,-0.144 h -1.14 z"
       style="font-size:24px;font-family:'B612 Mono';dominant-baseline:middle;text-anchor:middle"
       id="path1139" />
  </g>
  <g
     aria-label="F#"
     id="text920"
     class="note"
     style="font-size:24px;font-family:'B612 Mono';dominant-baseline:middle;text-anchor:middle">
    <path
       d="m 247.01201,454.6 h -4.212 v -15.156 l -0.42,-2.844 h 12.024 l -0.324,2.736 h -7.248 l 0.18,1.656 v 2.616 h 6.156 v 2.556 h -6.156 z"
       style="font-size:24px;font-family:'B612 Mono';dominant-baseline:middle;text-anchor:middle"
       id="path1134" />
    <path
       d="m 268.612,443.98 -0.12,0.912 q -0.048,0.432 -0.108,0.852 -0.06,0.42 -0.12,0.864 -0.048,0.444 -0.108,0.948 h 3.036 l -0.324,2.568 h -3 q -0.06,0.528 -0.132,1.104 -0.072,0.576 -0.156,1.164 -0.072,0.576 -0.144,1.14 -0.072,0.564 -0.132,1.068 l -3.672,0.204 0.6,-4.68 h -1.992 q -0.06,0.528 -0.144,1.104 -0.072,0.576 -0.156,1.164 -0.072,0.576 -0.156,1.14 -0.072,0.564 -0.132,1.068 l -3.66,0.204 0.636,-4.68 h -2.124 v -2.568 h 2.424 l 0.444,-3.576 h -2.916 l 0.324,-2.58 h 2.904 q 0.06,-0.42 0.096,-0.804 0.048,-0.396 0.108,-0.816 v -3.18 l 4.044,-0.24 -0.636,5.04 h 2.004 q 0.06,-0.528 0.132,-1.152 0.084,-0.624 0.168,-1.26 0.096,-0.648 0.168,-1.26 0.084,-0.624 0.144,-1.128 l 3.696,-0.24 -0.684,5.04 h 2.232 v 2.58 z m -3.636,0 h -1.968 l -0.12,0.912 q -0.048,0.432 -0.108,0.852 -0.048,0.42 -0.108,0.864 -0.048,0.444 -0.108,0.948 h 1.968 z"
       style="font-size:24px;font-family:'B612 Mono';dominant-baseline:middle;text-anchor:middle"
       id="path1136" />
  </g>
  <g
     aria-label="C#"
     id="text922"
     class="note"
     style="font-size:24px;font-family:'B612 Mono';dominant-baseline:middle;text-anchor:middle">
    <path
       d="m 159.04001,427.28089 q -1.224,0.972 -2.568,1.392 -1.332,0.408 -2.904,0.408 -1.86,0 -3.336,-0.744 -1.476,-0.756 -2.508,-2.04 -1.032,-1.284 -1.584,-3 -0.54,-1.716 -0.54,-3.648 0,-1.212 0.204,-2.34 0.204,-1.14 0.624,-2.136 0.42,-1.008 1.068,-1.824 0.648,-0.828 1.536,-1.416 0.9,-0.6 2.04,-0.924 1.14,-0.336 2.544,-0.336 1.56,0 2.964,0.528 1.404,0.528 2.46,1.548 l -1.776,2.208 q -0.396,-0.264 -0.84,-0.504 -0.432,-0.24 -0.876,-0.42 -0.444,-0.18 -0.888,-0.288 -0.444,-0.108 -0.852,-0.108 -1.14,0 -1.908,0.468 -0.768,0.468 -1.236,1.284 -0.468,0.804 -0.672,1.896 -0.192,1.092 -0.192,2.328 0,0.732 0.096,1.5 0.108,0.756 0.312,1.476 0.216,0.72 0.54,1.356 0.336,0.636 0.78,1.116 0.456,0.468 1.032,0.744 0.576,0.276 1.296,0.276 0.408,0 0.804,-0.06 0.396,-0.072 0.828,-0.216 0.444,-0.156 0.96,-0.396 0.516,-0.252 1.164,-0.612 z"
       style="font-size:24px;font-family:'B612 Mono';dominant-baseline:middle;text-anchor:middle"
       id="path1129" />
    <path
       d="m 172.612,418.25689 -0.12,0.912 q -0.048,0.432 -0.108,0.852 -0.06,0.42 -0.12,0.864 -0.048,0.444 -0.108,0.948 h 3.036 l -0.324,2.568 h -3 q -0.06,0.528 -0.132,1.104 -0.072,0.576 -0.156,1.164 -0.072,0.576 -0.144,1.14 -0.072,0.564 -0.132,1.068 l -3.672,0.204 0.6,-4.68 h -1.992 q -0.06,0.528 -0.144,1.104 -0.072,0.576 -0.156,1.164 -0.072,0.576 -0.156,1.14 -0.072,0.564 -0.132,1.068 l -3.66,0.204 0.636,-4.68 h -2.124 v -2.568 h 2.424 l 0.444,-3.576 h -2.916 l 0.324,-2.58 h 2.904 q 0.06,-0.42 0.096,-0.804 0.048,-0.396 0.108,-0.816 v -3.18 l 4.044,-0.24 -0.636,5.04 h 2.004 q 0.06,-0.528 0.132,-1.152 0.084,-0.624 0.168,-1.26 0.096,-0.648 0.168,-1.26 0.084,-0.624 0.144,-1.128 l 3.696,-0.24 -0.684,5.04 h 2.232 v 2.58 z m -3.636,0 h -1.968 l -0.12,0.912 q -0.048,0.432 -0.108,0.852 -0.048,0.42 -0.108,0.864 -0.048,0.444 -0.108,0.948 h 1.968 z"
       style="font-size:24px;font-family:'B612 Mono';dominant-baseline:middle;text-anchor:middle"
       id="path1131" />
  </g>
  <g
     aria-label="Ab"
     id="text924"
     class="note"
     style="font-size:24px;font-family:'B612 Mono';dominant-baseline:middle;text-anchor:middle">
    <path
       d="m 74.723131,358.6 4.26,-15.408 0.432,-2.592 4.536,-0.24 5.172,18.24 h -4.008 l -1.248,-5.124 h -4.104 l -1.212,5.124 z m 7.116,-15.972 -0.468,4.092 -0.9,4.128 h 2.688 l -0.864,-4.128 z"
       style="font-size:24px;font-family:'B612 Mono';dominant-baseline:middle;text-anchor:middle"
       id="path1124" />
    <path
       d="m 95.723122,356.056 q 0.348,0.06 0.744,0.108 0.396,0.036 0.756,0.036 0.756,0 1.236,-0.444 0.492,-0.456 0.768,-1.152 0.288,-0.708 0.396,-1.548 0.12,-0.852 0.12,-1.632 0,-0.984 -0.144,-1.668 -0.144,-0.696 -0.384,-1.128 -0.228,-0.432 -0.552,-0.624 -0.312,-0.204 -0.648,-0.204 -0.732,0 -1.284,0.252 -0.552,0.252 -1.008,0.636 z m -3.924,-14.232 -0.264,-2.436 4.188,-0.372 v 7.896 l 1.164,-1.464 q 0.348,-0.096 0.732,-0.168 0.396,-0.084 0.732,-0.084 1.092,0 2.063998,0.42 0.972,0.408 1.692,1.212 0.72,0.792 1.14,1.968 0.42,1.176 0.42,2.688 0,1.644 -0.492,3 -0.492,1.344 -1.368,2.304 -0.864,0.96 -2.075998,1.488 -1.2,0.516 -2.616,0.516 -0.756,0 -1.548,-0.084 -0.792,-0.072 -1.512,-0.192 -0.708,-0.12 -1.308,-0.264 -0.588,-0.156 -0.948,-0.3 z"
       style="font-size:24px;font-family:'B612 Mono';dominant-baseline:middle;text-anchor:middle"
       id="path1126" />
  </g>
  <g
     aria-label="Eb"
     id="text926"
     class="note"
     style="font-size:24px;font-family:'B612 Mono';dominant-baseline:middle;text-anchor:middle">
    <path
       d="m 62.044009,259.864 -0.324,2.736 h -11.52 l 0.204,-2.772 v -12.384 l -0.42,-2.844 h 11.616 v 2.736 h -7.164 l 0.18,1.656 v 2.616 h 6.192 v 2.556 h -6.192 v 4.116 l -0.096,1.584 z"
       style="font-size:24px;font-family:'B612 Mono';dominant-baseline:middle;text-anchor:middle"
       id="path1119" />
    <path
       d="m 70,260.056 q 0.348,0.06 0.744,0.108 0.396,0.036 0.756,0.036 0.756,0 1.236,-0.444 0.492,-0.456 0.768,-1.152 0.288,-0.708 0.396,-1.548 0.12,-0.852 0.12,-1.632 0,-0.984 -0.144,-1.668 -0.144,-0.696 -0.384,-1.128 -0.228,-0.432 -0.552,-0.624 -0.312,-0.204 -0.648,-0.204 -0.732,0 -1.284,0.252 -0.552,0.252 -1.008,0.636 z M 66.076,245.824 65.812,243.388 70,243.016 v 7.896 l 1.164,-1.464 q 0.348,-0.096 0.732,-0.168 0.396,-0.084 0.732,-0.084 1.092,0 2.064,0.42 0.972,0.408 1.692,1.212 0.72,0.792 1.14,1.968 0.42,1.176 0.42,2.688 0,1.644 -0.492,3 -0.492,1.344 -1.368,2.304 -0.864,0.96 -2.076,1.488 -1.2,0.516 -2.616,0.516 -0.756,0 -1.548,-0.084 -0.792,-0.072 -1.512,-0.192 -0.708,-0.12 -1.308,-0.264 -0.588,-0.156 -0.948,-0.3 z"
       style="font-size:24px;font-family:'B612 Mono';dominant-baseline:middle;text-anchor:middle"
       id="path1121" />
  </g>
  <g
     aria-label="Bb"
     id="text928"
     class="note"
     style="font-size:24px;font-family:'B612 Mono';dominant-baseline:middle;text-anchor:middle">
    <path
       d="m 79.787131,153.04 v 2.76 h 0.348 q 0.564,0 1.128,-0.156 0.576,-0.156 1.032,-0.48 0.456,-0.336 0.744,-0.852 0.288,-0.516 0.288,-1.248 0,-0.66 -0.276,-1.08 -0.276,-0.42 -0.708,-0.648 -0.432,-0.228 -0.96,-0.312 -0.516,-0.084 -1.008,-0.084 -0.168,0 -0.384,0.012 -0.216,0.012 -0.396,0.036 z m -4.212,13.56 v -15.144 l -0.384,-2.724 q 0.516,-0.072 1.128,-0.132 0.612,-0.06 1.212,-0.108 0.612,-0.048 1.164,-0.072 0.552,-0.024 0.948,-0.024 1.44,0 2.784,0.204 1.344,0.192 2.376,0.696 1.044,0.504 1.668,1.368 0.624,0.852 0.624,2.16 0,0.648 -0.192,1.224 -0.18,0.576 -0.516,1.068 -0.324,0.492 -0.804,0.888 -0.468,0.396 -1.044,0.684 0.768,0.264 1.44,0.636 0.684,0.372 1.188,0.888 0.504,0.516 0.792,1.188 0.288,0.66 0.288,1.5 0,1.056 -0.3,1.896 -0.3,0.828 -0.816,1.464 -0.504,0.624 -1.2,1.08 -0.696,0.444 -1.488,0.732 -0.78,0.276 -1.632,0.408 -0.84,0.12 -1.656,0.12 z m 4.212,-2.736 h 0.684 q 0.9,0 1.596,-0.132 0.708,-0.144 1.188,-0.48 0.492,-0.336 0.744,-0.876 0.264,-0.54 0.264,-1.356 0,-0.768 -0.252,-1.296 -0.252,-0.528 -0.696,-0.84 -0.444,-0.324 -1.056,-0.456 -0.612,-0.144 -1.332,-0.144 h -1.14 z"
       style="font-size:24px;font-family:'B612 Mono';dominant-baseline:middle;text-anchor:middle"
       id="path1114" />
    <path
       d="m 95.723122,164.056 q 0.348,0.06 0.744,0.108 0.396,0.036 0.756,0.036 0.756,0 1.236,-0.444 0.492,-0.456 0.768,-1.152 0.288,-0.708 0.396,-1.548 0.12,-0.852 0.12,-1.632 0,-0.984 -0.144,-1.668 -0.144,-0.696 -0.384,-1.128 -0.228,-0.432 -0.552,-0.624 -0.312,-0.204 -0.648,-0.204 -0.732,0 -1.284,0.252 -0.552,0.252 -1.008,0.636 z m -3.924,-14.232 -0.264,-2.436 4.188,-0.372 v 7.896 l 1.164,-1.464 q 0.348,-0.096 0.732,-0.168 0.396,-0.084 0.732,-0.084 1.092,0 2.063998,0.42 0.972,0.408 1.692,1.212 0.72,0.792 1.14,1.968 0.42,1.176 0.42,2.688 0,1.644 -0.492,3 -0.492,1.344 -1.368,2.304 -0.864,0.96 -2.075998,1.488 -1.2,0.516 -2.616,0.516 -0.756,0 -1.548,-0.084 -0.792,-0.072 -1.512,-0.192 -0.708,-0.12 -1.308,-0.264 -0.588,-0.156 -0.948,-0.3 z"
       style="font-size:24px;font-family:'B612 Mono';dominant-baseline:middle;text-anchor:middle"
       id="path1116" />
  </g>
  <g
     aria-label="F"
     id="text930"
     class="note"
     style="font-size:24px;font-family:'B612 Mono';dominant-baseline:middle;text-anchor:middle">
    <path
       d="M 158.812,96.323122 H 154.6 v -15.156 l -0.42,-2.844 h 12.024 l -0.324,2.736 h -7.248 l 0.18,1.656 v 2.616 h 6.156 v 2.556 h -6.156 z"
       style="font-size:24px;font-family:'B612 Mono';dominant-baseline:middle;text-anchor:middle"
       id="path1111" />
  </g>
  <g
     aria-label="Am"
     id="text932"
     class="note"
     style="font-size:24px;font-family:'B612 Mono';dominant-baseline:middle;text-anchor:middle">
    <path
       d="m 241.00001,134.6 4.26,-15.408 0.432,-2.592 4.536,-0.24 5.172,18.24 h -4.008 l -1.248,-5.124 h -4.104 l -1.212,5.124 z m 7.116,-15.972 -0.468,4.092 -0.9,4.128 h 2.688 l -0.864,-4.128 z"
       style="font-size:24px;font-family:'B612 Mono';dominant-baseline:middle;text-anchor:middle"
       id="path1106" />
    <path
       d="m 260.38,134.6 h -3.78 v -13.2 l 3.78,-0.24 v 1.44 l 0.924,-1.2 q 0.12,-0.072 0.42,-0.132 0.312,-0.072 0.54,-0.072 0.588,0 0.996,0.048 0.42,0.036 0.732,0.144 0.312,0.108 0.54,0.288 0.24,0.18 0.468,0.456 0.228,-0.156 0.54,-0.312 0.324,-0.168 0.672,-0.3 0.36,-0.144 0.732,-0.228 0.384,-0.096 0.756,-0.096 1.164,0 1.836,0.324 0.672,0.324 1.02,0.924 0.348,0.588 0.444,1.44 0.096,0.84 0.096,1.884 v 8.832 h -3.78 v -8.724 q 0,-0.48 -0.012,-0.84 -0.012,-0.36 -0.072,-0.588 -0.048,-0.24 -0.168,-0.348 -0.108,-0.12 -0.324,-0.12 -0.204,0 -0.396,0.084 -0.18,0.084 -0.336,0.228 -0.144,0.144 -0.252,0.336 -0.096,0.18 -0.12,0.396 v 0.24 q 0,0.144 0,0.3 0.012,0.144 0.012,0.276 v 8.76 H 262 v -8.496 q 0,-1.02 -0.108,-1.572 -0.096,-0.552 -0.468,-0.552 -0.348,0 -0.648,0.228 -0.288,0.228 -0.396,0.744 z"
       style="font-size:24px;font-family:'B612 Mono';dominant-baseline:middle;text-anchor:middle"
       id="path1108" />
  </g>
  <g
     aria-label="Em"
     id="text934"
     class="note"
     style="font-size:24px;font-family:'B612 Mono';dominant-baseline:middle;text-anchor:middle">
    <path
       d="m 318.04401,149.01274 -0.324,2.736 h -11.52 l 0.204,-2.772 v -12.384 l -0.42,-2.844 h 11.616 v 2.736 h -7.164 l 0.18,1.656 v 2.616 h 6.192 v 2.556 h -6.192 v 4.116 l -0.096,1.584 z"
       style="font-size:24px;font-family:'B612 Mono';dominant-baseline:middle;text-anchor:middle"
       id="path1101" />
    <path
       d="m 324.38,151.74874 h -3.78 v -13.2 l 3.78,-0.24 v 1.44 l 0.924,-1.2 q 0.12,-0.072 0.42,-0.132 0.312,-0.072 0.54,-0.072 0.588,0 0.996,0.048 0.42,0.036 0.732,0.144 0.312,0.108 0.54,0.288 0.24,0.18 0.468,0.456 0.228,-0.156 0.54,-0.312 0.324,-0.168 0.672,-0.3 0.36,-0.144 0.732,-0.228 0.384,-0.096 0.756,-0.096 1.164,0 1.836,0.324 0.672,0.324 1.02,0.924 0.348,0.588 0.444,1.44 0.096,0.84 0.096,1.884 v 8.832 h -3.78 v -8.724 q 0,-0.48 -0.012,-0.84 -0.012,-0.36 -0.072,-0.588 -0.048,-0.24 -0.168,-0.348 -0.108,-0.12 -0.324,-0.12 -0.204,0 -0.396,0.084 -0.18,0.084 -0.336,0.228 -0.144,0.144 -0.252,0.336 -0.096,0.18 -0.12,0.396 v 0.24 q 0,0.144 0,0.3 0.012,0.144 0.012,0.276 v 8.76 H 326 v -8.496 q 0,-1.02 -0.108,-1.572 -0.096,-0.552 -0.468,-0.552 -0.348,0 -0.648,0.228 -0.288,0.228 -0.396,0.744 z"
       style="font-size:24px;font-family:'B612 Mono';dominant-baseline:middle;text-anchor:middle"
       id="path1103" />
  </g>
  <g
     aria-label="Bm"
     id="text936"
     class="note"
     style="font-size:24px;font-family:'B612 Mono';dominant-baseline:middle;text-anchor:middle">
    <path
       d="m 356.91527,185.04 v 2.76 h 0.348 q 0.564,0 1.128,-0.156 0.576,-0.156 1.032,-0.48 0.456,-0.336 0.744,-0.852 0.288,-0.516 0.288,-1.248 0,-0.66 -0.276,-1.08 -0.276,-0.42 -0.708,-0.648 -0.432,-0.228 -0.96,-0.312 -0.516,-0.084 -1.008,-0.084 -0.168,0 -0.384,0.012 -0.216,0.012 -0.396,0.036 z m -4.212,13.56 v -15.144 l -0.384,-2.724 q 0.516,-0.072 1.128,-0.132 0.612,-0.06 1.212,-0.108 0.612,-0.048 1.164,-0.072 0.552,-0.024 0.948,-0.024 1.44,0 2.784,0.204 1.344,0.192 2.376,0.696 1.044,0.504 1.668,1.368 0.624,0.852 0.624,2.16 0,0.648 -0.192,1.224 -0.18,0.576 -0.516,1.068 -0.324,0.492 -0.804,0.888 -0.468,0.396 -1.044,0.684 0.768,0.264 1.44,0.636 0.684,0.372 1.188,0.888 0.504,0.516 0.792,1.188 0.288,0.66 0.288,1.5 0,1.056 -0.3,1.896 -0.3,0.828 -0.816,1.464 -0.504,0.624 -1.2,1.08 -0.696,0.444 -1.488,0.732 -0.78,0.276 -1.632,0.408 -0.84,0.12 -1.656,0.12 z m 4.212,-2.736 h 0.684 q 0.9,0 1.596,-0.132 0.708,-0.144 1.188,-0.48 0.492,-0.336 0.744,-0.876 0.264,-0.54 0.264,-1.356 0,-0.768 -0.252,-1.296 -0.252,-0.528 -0.696,-0.84 -0.444,-0.324 -1.056,-0.456 -0.612,-0.144 -1.332,-0.144 h -1.14 z"
       style="font-size:24px;font-family:'B612 Mono';dominant-baseline:middle;text-anchor:middle"
       id="path1096" />
    <path
       d="m 371.23126,198.6 h -3.78 v -13.2 l 3.78,-0.24 v 1.44 l 0.924,-1.2 q 0.12,-0.072 0.42,-0.132 0.312,-0.072 0.54,-0.072 0.588,0 0.996,0.048 0.42,0.036 0.732,0.144 0.312,0.108 0.54,0.288 0.24,0.18 0.468,0.456 0.228,-0.156 0.54,-0.312 0.324,-0.168 0.672,-0.3 0.36,-0.144 0.732,-0.228 0.384,-0.096 0.756,-0.096 1.164,0 1.836,0.324 0.672,0.324 1.02,0.924 0.348,0.588 0.444,1.44 0.096,0.84 0.096,1.884 v 8.832 h -3.78 v -8.724 q 0,-0.48 -0.012,-0.84 -0.012,-0.36 -0.072,-0.588 -0.048,-0.24 -0.168,-0.348 -0.108,-0.12 -0.324,-0.12 -0.204,0 -0.396,0.084 -0.18,0.084 -0.336,0.228 -0.144,0.144 -0.252,0.336 -0.096,0.18 -0.12,0.396 v 0.24 q 0,0.144 0,0.3 0.012,0.144 0.012,0.276 v 8.76 h -3.648 v -8.496 q 0,-1.02 -0.108,-1.572 -0.096,-0.552 -0.468,-0.552 -0.348,0 -0.648,0.228 -0.288,0.228 -0.396,0.744 z"
       style="font-size:24px;font-family:'B612 Mono';dominant-baseline:middle;text-anchor:middle"
       id="path1098" />
  </g>
  <g
     aria-label="F#m"
     id="text938"
     class="note"
     style="font-size:24px;font-family:'B612 Mono';dominant-baseline:middle;text-anchor:middle">
    <path
       d="m 367.21201,262.6 h -4.212 v -15.156 l -0.42,-2.844 h 12.024 l -0.324,2.736 h -7.248 l 0.18,1.656 v 2.616 h 6.156 v 2.556 h -6.156 z"
       style="font-size:24px;font-family:'B612 Mono';dominant-baseline:middle;text-anchor:middle"
       id="path1089" />
    <path
       d="m 388.812,251.98 -0.12,0.912 q -0.048,0.432 -0.108,0.852 -0.06,0.42 -0.12,0.864 -0.048,0.444 -0.108,0.948 h 3.036 l -0.324,2.568 h -3 q -0.06,0.528 -0.132,1.104 -0.072,0.576 -0.156,1.164 -0.072,0.576 -0.144,1.14 -0.072,0.564 -0.132,1.068 l -3.672,0.204 0.6,-4.68 h -1.992 q -0.06,0.528 -0.144,1.104 -0.072,0.576 -0.156,1.164 -0.072,0.576 -0.156,1.14 -0.072,0.564 -0.132,1.068 l -3.66,0.204 0.636,-4.68 h -2.124 v -2.568 h 2.424 l 0.444,-3.576 h -2.916 l 0.324,-2.58 h 2.904 q 0.06,-0.42 0.096,-0.804 0.048,-0.396 0.108,-0.816 v -3.18 l 4.044,-0.24 -0.636,5.04 h 2.004 q 0.06,-0.528 0.132,-1.152 0.084,-0.624 0.168,-1.26 0.096,-0.648 0.168,-1.26 0.084,-0.624 0.144,-1.128 l 3.696,-0.24 -0.684,5.04 h 2.232 v 2.58 z m -3.636,0 h -1.968 l -0.12,0.912 q -0.048,0.432 -0.108,0.852 -0.048,0.42 -0.108,0.864 -0.048,0.444 -0.108,0.948 h 1.968 z"
       style="font-size:24px;font-family:'B612 Mono';dominant-baseline:middle;text-anchor:middle"
       id="path1091" />
    <path
       d="m 396.18,262.6 h -3.78 v -13.2 l 3.78,-0.24 v 1.44 l 0.924,-1.2 q 0.12,-0.072 0.42,-0.132 0.312,-0.072 0.54,-0.072 0.588,0 0.996,0.048 0.42,0.036 0.732,0.144 0.312,0.108 0.54,0.288 0.24,0.18 0.468,0.456 0.228,-0.156 0.54,-0.312 0.324,-0.168 0.672,-0.3 0.36,-0.144 0.732,-0.228 0.384,-0.096 0.756,-0.096 1.164,0 1.836,0.324 0.672,0.324 1.02,0.924 0.348,0.588 0.444,1.44 0.096,0.84 0.096,1.884 v 8.832 h -3.78 v -8.724 q 0,-0.48 -0.012,-0.84 -0.012,-0.36 -0.072,-0.588 -0.048,-0.24 -0.168,-0.348 -0.108,-0.12 -0.324,-0.12 -0.204,0 -0.396,0.084 -0.18,0.084 -0.336,0.228 -0.144,0.144 -0.252,0.336 -0.096,0.18 -0.12,0.396 v 0.24 q 0,0.144 0,0.3 0.012,0.144 0.012,0.276 v 8.76 H 397.8 v -8.496 q 0,-1.02 -0.108,-1.572 -0.096,-0.552 -0.468,-0.552 -0.348,0 -0.648,0.228 -0.288,0.228 -0.396,0.744 z"
       style="font-size:24px;font-family:'B612 Mono';dominant-baseline:middle;text-anchor:middle"
       id="path1093" />
  </g>
  <g
     aria-label="C#m"
     id="text940"
     class="note"
     style="font-size:24px;font-family:'B612 Mono';dominant-baseline:middle;text-anchor:middle">
    <path
       d="m 358.09127,325.004 q -1.224,0.972 -2.568,1.392 -1.332,0.408 -2.904,0.408 -1.86,0 -3.336,-0.744 -1.476,-0.756 -2.508,-2.04 -1.032,-1.284 -1.584,-3 -0.54,-1.716 -0.54,-3.648 0,-1.212 0.204,-2.34 0.204,-1.14 0.624,-2.136 0.42,-1.008 1.068,-1.824 0.648,-0.828 1.536,-1.416 0.9,-0.6 2.04,-0.924 1.14,-0.336 2.544,-0.336 1.56,0 2.964,0.528 1.404,0.528 2.46,1.548 l -1.776,2.208 q -0.396,-0.264 -0.84,-0.504 -0.432,-0.24 -0.876,-0.42 -0.444,-0.18 -0.888,-0.288 -0.444,-0.108 -0.852,-0.108 -1.14,0 -1.908,0.468 -0.768,0.468 -1.236,1.284 -0.468,0.804 -0.672,1.896 -0.192,1.092 -0.192,2.328 0,0.732 0.096,1.5 0.108,0.756 0.312,1.476 0.216,0.72 0.54,1.356 0.336,0.636 0.78,1.116 0.456,0.468 1.032,0.744 0.576,0.276 1.296,0.276 0.408,0 0.804,-0.06 0.396,-0.072 0.828,-0.216 0.444,-0.156 0.96,-0.396 0.516,-0.252 1.164,-0.612 z"
       style="font-size:24px;font-family:'B612 Mono';dominant-baseline:middle;text-anchor:middle"
       id="path1082" />
    <path
       d="m 371.66326,315.98 -0.12,0.912 q -0.048,0.432 -0.108,0.852 -0.06,0.42 -0.12,0.864 -0.048,0.444 -0.108,0.948 h 3.036 l -0.324,2.568 h -3 q -0.06,0.528 -0.132,1.104 -0.072,0.576 -0.156,1.164 -0.072,0.576 -0.144,1.14 -0.072,0.564 -0.132,1.068 l -3.672,0.204 0.6,-4.68 h -1.992 q -0.06,0.528 -0.144,1.104 -0.072,0.576 -0.156,1.164 -0.072,0.576 -0.156,1.14 -0.072,0.564 -0.132,1.068 l -3.66,0.204 0.636,-4.68 h -2.124 v -2.568 h 2.424 l 0.444,-3.576 h -2.916 l 0.324,-2.58 h 2.904 q 0.06,-0.42 0.096,-0.804 0.048,-0.396 0.108,-0.816 v -3.18 l 4.044,-0.24 -0.636,5.04 h 2.004 q 0.06,-0.528 0.132,-1.152 0.084,-0.624 0.168,-1.26 0.096,-0.648 0.168,-1.26 0.084,-0.624 0.144,-1.128 l 3.696,-0.24 -0.684,5.04 h 2.232 v 2.58 z m -3.636,0 h -1.968 l -0.12,0.912 q -0.048,0.432 -0.108,0.852 -0.048,0.42 -0.108,0.864 -0.048,0.444 -0.108,0.948 h 1.968 z"
       style="font-size:24px;font-family:'B612 Mono';dominant-baseline:middle;text-anchor:middle"
       id="path1084" />
    <path
       d="m 379.03125,326.6 h -3.78 v -13.2 l 3.78,-0.24 v 1.44 l 0.924,-1.2 q 0.12,-0.072 0.42,-0.132 0.312,-0.072 0.54,-0.072 0.588,0 0.996,0.048 0.42,0.036 0.732,0.144 0.312,0.108 0.54,0.288 0.24,0.18 0.468,0.456 0.228,-0.156 0.54,-0.312 0.324,-0.168 0.672,-0.3 0.36,-0.144 0.732,-0.228 0.384,-0.096 0.756,-0.096 1.164,0 1.836,0.324 0.672,0.324 1.02,0.924 0.348,0.588 0.444,1.44 0.096,0.84 0.096,1.884 v 8.832 h -3.78 v -8.724 q 0,-0.48 -0.012,-0.84 -0.012,-0.36 -0.072,-0.588 -0.048,-0.24 -0.168,-0.348 -0.108,-0.12 -0.324,-0.12 -0.204,0 -0.396,0.084 -0.18,0.084 -0.336,0.228 -0.144,0.144 -0.252,0.336 -0.096,0.18 -0.12,0.396 v 0.24 q 0,0.144 0,0.3 0.012,0.144 0.012,0.276 v 8.76 h -3.648 v -8.496 q 0,-1.02 -0.108,-1.572 -0.096,-0.552 -0.468,-0.552 -0.348,0 -0.648,0.228 -0.288,0.228 -0.396,0.744 z"
       style="font-size:24px;font-family:'B612 Mono';dominant-baseline:middle;text-anchor:middle"
       id="path1086" />
  </g>
  <g
     aria-label="G#m"
     id="text942"
     class="note"
     style="font-size:24px;font-family:'B612 Mono';dominant-baseline:middle;text-anchor:middle">
    <path
       d="m 311.61201,370.79926 q -0.54,0.6 -1.212,1.128 -0.672,0.516 -1.488,0.9 -0.816,0.384 -1.776,0.612 -0.948,0.216 -2.04,0.216 -1.86,0 -3.336,-0.744 -1.476,-0.756 -2.508,-2.04 -1.032,-1.284 -1.584,-3 -0.54,-1.716 -0.54,-3.648 0,-1.212 0.216,-2.34 0.216,-1.14 0.66,-2.136 0.444,-1.008 1.116,-1.824 0.684,-0.828 1.596,-1.416 0.912,-0.6 2.064,-0.924 1.164,-0.336 2.58,-0.336 1.56,0 2.964,0.528 1.404,0.528 2.46,1.548 l -1.776,2.088 q -0.396,-0.264 -0.828,-0.504 -0.432,-0.24 -0.888,-0.42 -0.444,-0.18 -0.888,-0.288 -0.444,-0.108 -0.864,-0.108 -1.14,0 -1.944,0.492 -0.792,0.48 -1.296,1.32 -0.504,0.828 -0.732,1.944 -0.228,1.104 -0.228,2.34 0,0.732 0.096,1.512 0.108,0.768 0.312,1.512 0.216,0.732 0.54,1.38 0.336,0.648 0.78,1.14 0.456,0.492 1.032,0.78 0.576,0.288 1.296,0.288 0.3,0 0.612,-0.072 0.324,-0.072 0.612,-0.18 0.3,-0.12 0.552,-0.264 0.264,-0.144 0.456,-0.3 v -3.924 l -3.528,-0.228 v -2.46 h 7.512 z"
       style="font-size:24px;font-family:'B612 Mono';dominant-baseline:middle;text-anchor:middle"
       id="path1075" />
    <path
       d="m 324.812,362.83126 -0.12,0.912 q -0.048,0.432 -0.108,0.852 -0.06,0.42 -0.12,0.864 -0.048,0.444 -0.108,0.948 h 3.036 l -0.324,2.568 h -3 q -0.06,0.528 -0.132,1.104 -0.072,0.576 -0.156,1.164 -0.072,0.576 -0.144,1.14 -0.072,0.564 -0.132,1.068 l -3.672,0.204 0.6,-4.68 h -1.992 q -0.06,0.528 -0.144,1.104 -0.072,0.576 -0.156,1.164 -0.072,0.576 -0.156,1.14 -0.072,0.564 -0.132,1.068 l -3.66,0.204 0.636,-4.68 h -2.124 v -2.568 h 2.424 l 0.444,-3.576 h -2.916 l 0.324,-2.58 h 2.904 q 0.06,-0.42 0.096,-0.804 0.048,-0.396 0.108,-0.816 v -3.18 l 4.044,-0.24 -0.636,5.04 h 2.004 q 0.06,-0.528 0.132,-1.152 0.084,-0.624 0.168,-1.26 0.096,-0.648 0.168,-1.26 0.084,-0.624 0.144,-1.128 l 3.696,-0.24 -0.684,5.04 h 2.232 v 2.58 z m -3.636,0 h -1.968 l -0.12,0.912 q -0.048,0.432 -0.108,0.852 -0.048,0.42 -0.108,0.864 -0.048,0.444 -0.108,0.948 h 1.968 z"
       style="font-size:24px;font-family:'B612 Mono';dominant-baseline:middle;text-anchor:middle"
       id="path1077" />
    <path
       d="m 332.18,373.45126 h -3.78 v -13.2 l 3.78,-0.24 v 1.44 l 0.924,-1.2 q 0.12,-0.072 0.42,-0.132 0.312,-0.072 0.54,-0.072 0.588,0 0.996,0.048 0.42,0.036 0.732,0.144 0.312,0.108 0.54,0.288 0.24,0.18 0.468,0.456 0.228,-0.156 0.54,-0.312 0.324,-0.168 0.672,-0.3 0.36,-0.144 0.732,-0.228 0.384,-0.096 0.756,-0.096 1.164,0 1.836,0.324 0.672,0.324 1.02,0.924 0.348,0.588 0.444,1.44 0.096,0.84 0.096,1.884 v 8.832 h -3.78 v -8.724 q 0,-0.48 -0.012,-0.84 -0.012,-0.36 -0.072,-0.588 -0.048,-0.24 -0.168,-0.348 -0.108,-0.12 -0.324,-0.12 -0.204,0 -0.396,0.084 -0.18,0.084 -0.336,0.228 -0.144,0.144 -0.252,0.336 -0.096,0.18 -0.12,0.396 v 0.24 q 0,0.144 0,0.3 0.012,0.144 0.012,0.276 v 8.76 H 333.8 v -8.496 q 0,-1.02 -0.108,-1.572 -0.096,-0.552 -0.468,-0.552 -0.348,0 -0.648,0.228 -0.288,0.228 -0.396,0.744 z"
       style="font-size:24px;font-family:'B612 Mono';dominant-baseline:middle;text-anchor:middle"
       id="path1079" />
  </g>
  <g
     aria-label="Ebm"
     id="text944"
     class="note"
     style="font-size:24px;font-family:'B612 Mono';dominant-baseline:middle;text-anchor:middle">
    <path
       d="m 246.24401,387.864 -0.324,2.736 h -11.52 l 0.204,-2.772 v -12.384 l -0.42,-2.844 h 11.616 v 2.736 h -7.164 l 0.18,1.656 v 2.616 h 6.192 v 2.556 h -6.192 v 4.116 l -0.096,1.584 z"
       style="font-size:24px;font-family:'B612 Mono';dominant-baseline:middle;text-anchor:middle"
       id="path1068" />
    <path
       d="m 254.2,388.056 q 0.348,0.06 0.744,0.108 0.396,0.036 0.756,0.036 0.756,0 1.236,-0.444 0.492,-0.456 0.768,-1.152 0.288,-0.708 0.396,-1.548 0.12,-0.852 0.12,-1.632 0,-0.984 -0.144,-1.668 -0.144,-0.696 -0.384,-1.128 -0.228,-0.432 -0.552,-0.624 -0.312,-0.204 -0.648,-0.204 -0.732,0 -1.284,0.252 -0.552,0.252 -1.008,0.636 z m -3.924,-14.232 -0.264,-2.436 4.188,-0.372 v 7.896 l 1.164,-1.464 q 0.348,-0.096 0.732,-0.168 0.396,-0.084 0.732,-0.084 1.092,0 2.064,0.42 0.972,0.408 1.692,1.212 0.72,0.792 1.14,1.968 0.42,1.176 0.42,2.688 0,1.644 -0.492,3 -0.492,1.344 -1.368,2.304 -0.864,0.96 -2.076,1.488 -1.2,0.516 -2.616,0.516 -0.756,0 -1.548,-0.084 -0.792,-0.072 -1.512,-0.192 -0.708,-0.12 -1.308,-0.264 -0.588,-0.156 -0.948,-0.3 z"
       style="font-size:24px;font-family:'B612 Mono';dominant-baseline:middle;text-anchor:middle"
       id="path1070" />
    <path
       d="m 268.18,390.6 h -3.78 v -13.2 l 3.78,-0.24 v 1.44 l 0.924,-1.2 q 0.12,-0.072 0.42,-0.132 0.312,-0.072 0.54,-0.072 0.588,0 0.996,0.048 0.42,0.036 0.732,0.144 0.312,0.108 0.54,0.288 0.24,0.18 0.468,0.456 0.228,-0.156 0.54,-0.312 0.324,-0.168 0.672,-0.3 0.36,-0.144 0.732,-0.228 0.384,-0.096 0.756,-0.096 1.164,0 1.836,0.324 0.672,0.324 1.02,0.924 0.348,0.588 0.444,1.44 0.096,0.84 0.096,1.884 v 8.832 h -3.78 v -8.724 q 0,-0.48 -0.012,-0.84 -0.012,-0.36 -0.072,-0.588 -0.048,-0.24 -0.168,-0.348 -0.108,-0.12 -0.324,-0.12 -0.204,0 -0.396,0.084 -0.18,0.084 -0.336,0.228 -0.144,0.144 -0.252,0.336 -0.096,0.18 -0.12,0.396 v 0.24 q 0,0.144 0,0.3 0.012,0.144 0.012,0.276 v 8.76 H 269.8 v -8.496 q 0,-1.02 -0.108,-1.572 -0.096,-0.552 -0.468,-0.552 -0.348,0 -0.648,0.228 -0.288,0.228 -0.396,0.744 z"
       style="font-size:24px;font-family:'B612 Mono';dominant-baseline:middle;text-anchor:middle"
       id="path1072" />
  </g>
  <g
     aria-label="Bbm"
     id="text946"
     class="note"
     style="font-size:24px;font-family:'B612 Mono';dominant-baseline:middle;text-anchor:middle">
    <path
       d="m 174.26401,359.89126 v 2.76 h 0.348 q 0.564,0 1.128,-0.156 0.576,-0.156 1.032,-0.48 0.456,-0.336 0.744,-0.852 0.288,-0.516 0.288,-1.248 0,-0.66 -0.276,-1.08 -0.276,-0.42 -0.708,-0.648 -0.432,-0.228 -0.96,-0.312 -0.516,-0.084 -1.008,-0.084 -0.168,0 -0.384,0.012 -0.216,0.012 -0.396,0.036 z m -4.212,13.56 v -15.144 l -0.384,-2.724 q 0.516,-0.072 1.128,-0.132 0.612,-0.06 1.212,-0.108 0.612,-0.048 1.164,-0.072 0.552,-0.024 0.948,-0.024 1.44,0 2.784,0.204 1.344,0.192 2.376,0.696 1.044,0.504 1.668,1.368 0.624,0.852 0.624,2.16 0,0.648 -0.192,1.224 -0.18,0.576 -0.516,1.068 -0.324,0.492 -0.804,0.888 -0.468,0.396 -1.044,0.684 0.768,0.264 1.44,0.636 0.684,0.372 1.188,0.888 0.504,0.516 0.792,1.188 0.288,0.66 0.288,1.5 0,1.056 -0.3,1.896 -0.3,0.828 -0.816,1.464 -0.504,0.624 -1.2,1.08 -0.696,0.444 -1.488,0.732 -0.78,0.276 -1.632,0.408 -0.84,0.12 -1.656,0.12 z m 4.212,-2.736 h 0.684 q 0.9,0 1.596,-0.132 0.708,-0.144 1.188,-0.48 0.492,-0.336 0.744,-0.876 0.264,-0.54 0.264,-1.356 0,-0.768 -0.252,-1.296 -0.252,-0.528 -0.696,-0.84 -0.444,-0.324 -1.056,-0.456 -0.612,-0.144 -1.332,-0.144 h -1.14 z"
       style="font-size:24px;font-family:'B612 Mono';dominant-baseline:middle;text-anchor:middle"
       id="path1061" />
    <path
       d="m 190.2,370.90726 q 0.348,0.06 0.744,0.108 0.396,0.036 0.756,0.036 0.756,0 1.236,-0.444 0.492,-0.456 0.768,-1.152 0.288,-0.708 0.396,-1.548 0.12,-0.852 0.12,-1.632 0,-0.984 -0.144,-1.668 -0.144,-0.696 -0.384,-1.128 -0.228,-0.432 -0.552,-0.624 -0.312,-0.204 -0.648,-0.204 -0.732,0 -1.284,0.252 -0.552,0.252 -1.008,0.636 z m -3.924,-14.232 -0.264,-2.436 4.188,-0.372 v 7.896 l 1.164,-1.464 q 0.348,-0.096 0.732,-0.168 0.396,-0.084 0.732,-0.084 1.092,0 2.064,0.42 0.972,0.408 1.692,1.212 0.72,0.792 1.14,1.968 0.42,1.176 0.42,2.688 0,1.644 -0.492,3 -0.492,1.344 -1.368,2.304 -0.864,0.96 -2.076,1.488 -1.2,0.516 -2.616,0.516 -0.756,0 -1.548,-0.084 -0.792,-0.072 -1.512,-0.192 -0.708,-0.12 -1.308,-0.264 -0.588,-0.156 -0.948,-0.3 z"
       style="font-size:24px;font-family:'B612 Mono';dominant-baseline:middle;text-anchor:middle"
       id="path1063" />
    <path
       d="m 204.18,373.45126 h -3.78 v -13.2 l 3.78,-0.24 v 1.44 l 0.924,-1.2 q 0.12,-0.072 0.42,-0.132 0.312,-0.072 0.54,-0.072 0.588,0 0.996,0.048 0.42,0.036 0.732,0.144 0.312,0.108 0.54,0.288 0.24,0.18 0.468,0.456 0.228,-0.156 0.54,-0.312 0.324,-0.168 0.672,-0.3 0.36,-0.144 0.732,-0.228 0.384,-0.096 0.756,-0.096 1.164,0 1.836,0.324 0.672,0.324 1.02,0.924 0.348,0.588 0.444,1.44 0.096,0.84 0.096,1.884 v 8.832 h -3.78 v -8.724 q 0,-0.48 -0.012,-0.84 -0.012,-0.36 -0.072,-0.588 -0.048,-0.24 -0.168,-0.348 -0.108,-0.12 -0.324,-0.12 -0.204,0 -0.396,0.084 -0.18,0.084 -0.336,0.228 -0.144,0.144 -0.252,0.336 -0.096,0.18 -0.12,0.396 v 0.24 q 0,0.144 0,0.3 0.012,0.144 0.012,0.276 v 8.76 H 205.8 v -8.496 q 0,-1.02 -0.108,-1.572 -0.096,-0.552 -0.468,-0.552 -0.348,0 -0.648,0.228 -0.288,0.228 -0.396,0.744 z"
       style="font-size:24px;font-family:'B612 Mono';dominant-baseline:middle;text-anchor:middle"
       id="path1065" />
  </g>
  <g
     aria-label="Fm"
     id="text948"
     class="note"
     style="font-size:24px;font-family:'B612 Mono';dominant-baseline:middle;text-anchor:middle">
    <path
       d="m 136.16075,326.6 h -4.212 v -15.156 l -0.42,-2.844 h 12.024 l -0.324,2.736 h -7.248 l 0.18,1.656 v 2.616 h 6.156 v 2.556 h -6.156 z"
       style="font-size:24px;font-family:'B612 Mono';dominant-baseline:middle;text-anchor:middle"
       id="path1056" />
    <path
       d="m 149.52874,326.6 h -3.78 v -13.2 l 3.78,-0.24 v 1.44 l 0.924,-1.2 q 0.12,-0.072 0.42,-0.132 0.312,-0.072 0.54,-0.072 0.588,0 0.996,0.048 0.42,0.036 0.732,0.144 0.312,0.108 0.54,0.288 0.24,0.18 0.468,0.456 0.228,-0.156 0.54,-0.312 0.324,-0.168 0.672,-0.3 0.36,-0.144 0.732,-0.228 0.384,-0.096 0.756,-0.096 1.164,0 1.836,0.324 0.672,0.324 1.02,0.924 0.348,0.588 0.444,1.44 0.096,0.84 0.096,1.884 v 8.832 h -3.78 v -8.724 q 0,-0.48 -0.012,-0.84 -0.012,-0.36 -0.072,-0.588 -0.048,-0.24 -0.168,-0.348 -0.108,-0.12 -0.324,-0.12 -0.204,0 -0.396,0.084 -0.18,0.084 -0.336,0.228 -0.144,0.144 -0.252,0.336 -0.096,0.18 -0.12,0.396 v 0.24 q 0,0.144 0,0.3 0.012,0.144 0.012,0.276 v 8.76 h -3.648 v -8.496 q 0,-1.02 -0.108,-1.572 -0.096,-0.552 -0.468,-0.552 -0.348,0 -0.648,0.228 -0.288,0.228 -0.396,0.744 z"
       style="font-size:24px;font-family:'B612 Mono';dominant-baseline:middle;text-anchor:middle"
       id="path1058" />
  </g>
  <g
     aria-label="Cm"
     id="text950"
     class="note"
     style="font-size:24px;font-family:'B612 Mono';dominant-baseline:middle;text-anchor:middle">
    <path
       d="m 127.04001,261.004 q -1.224,0.972 -2.568,1.392 -1.332,0.408 -2.904,0.408 -1.86,0 -3.336,-0.744 -1.476,-0.756 -2.508,-2.04 -1.032,-1.284 -1.584,-3 -0.54,-1.716 -0.54,-3.648 0,-1.212 0.204,-2.34 0.204,-1.14 0.624,-2.136 0.42,-1.008 1.068,-1.824 0.648,-0.828 1.536,-1.416 0.9,-0.6 2.04,-0.924 1.14,-0.336 2.544,-0.336 1.56,0 2.964,0.528 1.404,0.528 2.46,1.548 l -1.776,2.208 q -0.396,-0.264 -0.84,-0.504 -0.432,-0.24 -0.876,-0.42 -0.444,-0.18 -0.888,-0.288 -0.444,-0.108 -0.852,-0.108 -1.14,0 -1.908,0.468 -0.768,0.468 -1.236,1.284 -0.468,0.804 -0.672,1.896 -0.192,1.092 -0.192,2.328 0,0.732 0.096,1.5 0.108,0.756 0.312,1.476 0.216,0.72 0.54,1.356 0.336,0.636 0.78,1.116 0.456,0.468 1.032,0.744 0.576,0.276 1.296,0.276 0.408,0 0.804,-0.06 0.396,-0.072 0.828,-0.216 0.444,-0.156 0.96,-0.396 0.516,-0.252 1.164,-0.612 z"
       style="font-size:24px;font-family:'B612 Mono';dominant-baseline:middle;text-anchor:middle"
       id="path1051" />
    <path
       d="m 132.38,262.6 h -3.78 v -13.2 l 3.78,-0.24 v 1.44 l 0.924,-1.2 q 0.12,-0.072 0.42,-0.132 0.312,-0.072 0.54,-0.072 0.588,0 0.996,0.048 0.42,0.036 0.732,0.144 0.312,0.108 0.54,0.288 0.24,0.18 0.468,0.456 0.228,-0.156 0.54,-0.312 0.324,-0.168 0.672,-0.3 0.36,-0.144 0.732,-0.228 0.384,-0.096 0.756,-0.096 1.164,0 1.836,0.324 0.672,0.324 1.02,0.924 0.348,0.588 0.444,1.44 0.096,0.84 0.096,1.884 v 8.832 h -3.78 v -8.724 q 0,-0.48 -0.012,-0.84 -0.012,-0.36 -0.072,-0.588 -0.048,-0.24 -0.168,-0.348 -0.108,-0.12 -0.324,-0.12 -0.204,0 -0.396,0.084 -0.18,0.084 -0.336,0.228 -0.144,0.144 -0.252,0.336 -0.096,0.18 -0.12,0.396 v 0.24 q 0,0.144 0,0.3 0.012,0.144 0.012,0.276 v 8.76 H 134 v -8.496 q 0,-1.02 -0.108,-1.572 -0.096,-0.552 -0.468,-0.552 -0.348,0 -0.648,0.228 -0.288,0.228 -0.396,0.744 z"
       style="font-size:24px;font-family:'B612 Mono';dominant-baseline:middle;text-anchor:middle"
       id="path1053" />
  </g>
  <g
     aria-label="Gm"
     id="text952"
     class="note"
     style="font-size:24px;font-family:'B612 Mono';dominant-baseline:middle;text-anchor:middle">
    <path
       d="m 144.56075,195.948 q -0.54,0.6 -1.212,1.128 -0.672,0.516 -1.488,0.9 -0.816,0.384 -1.776,0.612 -0.948,0.216 -2.04,0.216 -1.86,0 -3.336,-0.744 -1.476,-0.756 -2.508,-2.04 -1.032,-1.284 -1.584,-3 -0.54,-1.716 -0.54,-3.648 0,-1.212 0.216,-2.34 0.216,-1.14 0.66,-2.136 0.444,-1.008 1.116,-1.824 0.684,-0.828 1.596,-1.416 0.912,-0.6 2.064,-0.924 1.164,-0.336 2.58,-0.336 1.56,0 2.964,0.528 1.404,0.528 2.46,1.548 l -1.776,2.088 q -0.396,-0.264 -0.828,-0.504 -0.432,-0.24 -0.888,-0.42 -0.444,-0.18 -0.888,-0.288 -0.444,-0.108 -0.864,-0.108 -1.14,0 -1.944,0.492 -0.792,0.48 -1.296,1.32 -0.504,0.828 -0.732,1.944 -0.228,1.104 -0.228,2.34 0,0.732 0.096,1.512 0.108,0.768 0.312,1.512 0.216,0.732 0.54,1.38 0.336,0.648 0.78,1.14 0.456,0.492 1.032,0.78 0.576,0.288 1.296,0.288 0.3,0 0.612,-0.072 0.324,-0.072 0.612,-0.18 0.3,-0.12 0.552,-0.264 0.264,-0.144 0.456,-0.3 v -3.924 l -3.528,-0.228 v -2.46 h 7.512 z"
       style="font-size:24px;font-family:'B612 Mono';dominant-baseline:middle;text-anchor:middle"
       id="path1046" />
    <path
       d="m 149.52874,198.6 h -3.78 v -13.2 l 3.78,-0.24 v 1.44 l 0.924,-1.2 q 0.12,-0.072 0.42,-0.132 0.312,-0.072 0.54,-0.072 0.588,0 0.996,0.048 0.42,0.036 0.732,0.144 0.312,0.108 0.54,0.288 0.24,0.18 0.468,0.456 0.228,-0.156 0.54,-0.312 0.324,-0.168 0.672,-0.3 0.36,-0.144 0.732,-0.228 0.384,-0.096 0.756,-0.096 1.164,0 1.836,0.324 0.672,0.324 1.02,0.924 0.348,0.588 0.444,1.44 0.096,0.84 0.096,1.884 v 8.832 h -3.78 v -8.724 q 0,-0.48 -0.012,-0.84 -0.012,-0.36 -0.072,-0.588 -0.048,-0.24 -0.168,-0.348 -0.108,-0.12 -0.324,-0.12 -0.204,0 -0.396,0.084 -0.18,0.084 -0.336,0.228 -0.144,0.144 -0.252,0.336 -0.096,0.18 -0.12,0.396 v 0.24 q 0,0.144 0,0.3 0.012,0.144 0.012,0.276 v 8.76 h -3.648 v -8.496 q 0,-1.02 -0.108,-1.572 -0.096,-0.552 -0.468,-0.552 -0.348,0 -0.648,0.228 -0.288,0.228 -0.396,0.744 z"
       style="font-size:24px;font-family:'B612 Mono';dominant-baseline:middle;text-anchor:middle"
       id="path1048" />
  </g>
  <g
     aria-label="Dm"
     id="text954"
     class="note"
     style="font-size:24px;font-family:'B612 Mono';dominant-baseline:middle;text-anchor:middle">
    <path
       d="m 177.19201,133.74874 q 0.588,-0.06 1.248,-0.096 0.66,-0.036 1.296,-0.06 0.648,-0.024 1.212,-0.036 0.576,-0.012 0.972,-0.012 2.016,0 3.72,0.492 1.716,0.48 2.964,1.512 1.248,1.032 1.956,2.652 0.708,1.608 0.708,3.864 0,1.74 -0.348,3.144 -0.348,1.392 -0.984,2.472 -0.624,1.068 -1.5,1.848 -0.876,0.768 -1.932,1.26 -1.044,0.492 -2.232,0.732 -1.188,0.228 -2.448,0.228 h -4.224 v -15.144 z m 4.62,4.548 v 10.452 q 1.26,0 2.136,-0.3 0.876,-0.312 1.464,-0.816 0.588,-0.516 0.912,-1.176 0.324,-0.66 0.492,-1.356 0.168,-0.708 0.204,-1.404 0.036,-0.696 0.036,-1.284 0,-1.344 -0.216,-2.46 -0.204,-1.116 -0.78,-1.92 -0.576,-0.804 -1.596,-1.236 -1.02,-0.444 -2.64,-0.444 -0.036,0 -0.084,0.012 -0.036,0 -0.084,0 h -0.096 z"
       style="font-size:24px;font-family:'B612 Mono';dominant-baseline:middle;text-anchor:middle"
       id="path1041" />
    <path
       d="m 196.38,151.74874 h -3.78 v -13.2 l 3.78,-0.24 v 1.44 l 0.924,-1.2 q 0.12,-0.072 0.42,-0.132 0.312,-0.072 0.54,-0.072 0.588,0 0.996,0.048 0.42,0.036 0.732,0.144 0.312,0.108 0.54,0.288 0.24,0.18 0.468,0.456 0.228,-0.156 0.54,-0.312 0.324,-0.168 0.672,-0.3 0.36,-0.144 0.732,-0.228 0.384,-0.096 0.756,-0.096 1.164,0 1.836,0.324 0.672,0.324 1.02,0.924 0.348,0.588 0.444,1.44 0.096,0.84 0.096,1.884 v 8.832 h -3.78 v -8.724 q 0,-0.48 -0.012,-0.84 -0.012,-0.36 -0.072,-0.588 -0.048,-0.24 -0.168,-0.348 -0.108,-0.12 -0.324,-0.12 -0.204,0 -0.396,0.084 -0.18,0.084 -0.336,0.228 -0.144,0.144 -0.252,0.336 -0.096,0.18 -0.12,0.396 v 0.24 q 0,0.144 0,0.3 0.012,0.144 0.012,0.276 v 8.76 H 198 v -8.496 q 0,-1.02 -0.108,-1.572 -0.096,-0.552 -0.468,-0.552 -0.348,0 -0.648,0.228 -0.288,0.228 -0.396,0.744 z"
       style="font-size:24px;font-family:'B612 Mono';dominant-baseline:middle;text-anchor:middle"
       id="path1043" />
  </g>
</svg>
